<svg id="Layer_2" data-name="Layer 2" xmlns="http://www.w3.org/2000/svg" viewBox="0 0 1000 1000"><defs><style>.cls-1,.cls-4{fill:none;stroke-miterlimit:10;stroke-width:5.28px;}.cls-1{stroke:#ccdde2;}.cls-2{fill:#2e2e2e;}.cls-3{fill:#3fbdf1;}.cls-4{stroke:#000;}</style></defs><path class="cls-1" d="M533.19,295c1.34-.35,2.71-.74,4-1.13,23-6.72,45.65-18.1,61.46-36.45,15.46-17.89,25.6-40,43.14-56.17a86.48,86.48,0,0,1,76.92-20.93A189.84,189.84,0,0,1,760,194a168.75,168.75,0,0,1,55.26,40.79c25.43,28.28,41,64.42,47.69,103.16q2.16,12.73,3.06,25.78a276.35,276.35,0,0,1-.1,39.66A286.62,286.62,0,0,1,848,484a429.8,429.8,0,0,1-23.66,51.32c-4.48,8.24-9.16,16.41-14.06,24.41"/><path class="cls-1" d="M866,363.69a117.56,117.56,0,0,1-75.4-151.52,171.56,171.56,0,0,1,24.65,22.58c25.43,28.28,41,64.42,47.69,103.16Q865.08,350.65,866,363.69Z"/><path class="cls-1" d="M221.11,433.14S70.83,563.38,163.6,714.83c17.82,29.09,31.62,53.22,42.26,73.19.67,1.23,1.3,2.43,1.94,3.62,42.51,80.62,32.08,91,32.08,91"/><path class="cls-1" d="M452.71,303a445.08,445.08,0,0,1-56-6.06"/><path class="cls-1" d="M396.68,855.64v22a5.05,5.05,0,0,1-4.05,4.93h0a4.14,4.14,0,0,1-1,.11H239.88"/><path class="cls-1" d="M396.68,752.94V619.88A11.82,11.82,0,0,0,384.85,608h-174a5,5,0,0,0-5,5.07V788"/><polyline class="cls-1" points="396.64 753.01 396.64 699.05 205.86 699.05 205.86 788.01"/><line class="cls-1" x1="373.29" y1="791.64" x2="207.8" y2="791.64"/><circle class="cls-1" cx="301.26" cy="745.34" r="13.9"/><circle class="cls-1" cx="301.26" cy="656.49" r="13.9"/><circle class="cls-1" cx="301.26" cy="839.02" r="13.9"/><polyline class="cls-1" points="485.57 608.04 384.85 608.04 210.9 608.04 189.41 608.04 189.41 588.71 494.77 588.71"/><path class="cls-1" d="M356.48,532.05l-9,50.27a6.1,6.1,0,0,1-6,5h-47a6.09,6.09,0,0,1-6-5.11l-8.29-50.19Z"/><path class="cls-1" d="M365,526.44h0a6.09,6.09,0,0,1-6.08,5.61H277.87a6.1,6.1,0,0,1-6.08-5.52h0a6.11,6.11,0,0,1,6.08-6.69h81.07A6.1,6.1,0,0,1,365,526.44Z"/><path class="cls-1" d="M320.94,519.84c0-2.57,6.55-34.66,1.12-63.11-3-15.6-9.56-30.11-22.8-38.05"/><path class="cls-1" d="M322.06,456.73s1.5-21.61,20.18-23.1"/><path class="cls-1" d="M324,489.71a29.3,29.3,0,0,1,18.2-5.25"/><path class="cls-1" d="M324,474.37S310.47,458.3,288.8,471"/><path class="cls-1" d="M314.49,467.9S283.94,440,278,477.73c0,0,8.59,5.61,21.3,0S314.49,467.9,314.49,467.9Z"/><path class="cls-1" d="M328.78,440.21s-1.11-12.56,13.46-16.67S365,436.62,365,436.62,353.81,449,328.78,440.21Z"/><path class="cls-1" d="M332.15,484.44s-.5-12.69,16.45-10.07,19.68,17.07,19.68,17.07-27.75,10.18-36.13-5.66"/><path class="cls-1" d="M311.74,430.43c0,.9-12.75-1.14-13.55-1.38-6.18-1.84-10.56-6.12-13.44-11.77-.89-1.75-6-11.59-4.57-13.3C280.18,404,310.49,394.23,311.74,430.43Z"/><path class="cls-2" d="M576.15,444.81s19.41,69.38-16.69,95.31c.44,2.14,34.44-2,34.44-2L592,575.52s39.24,15.26,57.48,15.43,36.38-17.32,40.84-26.23,83.15,5.21,76.28,63.58c0,0-50.16,52.54-105.55,36.08,0,0-37.79-14.92-22.82,2.58S739.08,745.25,749,866.08c0,0,71.75-43.35,75.39-176.76S789.6,501.12,750.26,459.4c0,0-29.79-20.92-34.4-14.59S681.08,475.7,671.07,474s-25-1-20.31-12.76,8.36-6.37,6.66-15.19-2.09-9.83-12.55-8.82S576.15,444.81,576.15,444.81Z"/><path class="cls-3" d="M404.73,855.65c-9,8.77-18.18,17.82-27.26,27H285.33a13.51,13.51,0,1,1,0-27Z"/><path class="cls-3" d="M760.16,364.26a61.77,61.77,0,0,1-.45,6.94v.07l-4.44,15.25,0,.11c-9.75,20.88-31.7,30.46-43.18,34.2a73.92,73.92,0,0,1-7.29,2c-3.06-9.86-1.9-19.51,4.12-28.14,2.64-3.76,6.52-6.55,8.74-10.56,2.11-3.77,2.32-8.28-.85-11.48a12.63,12.63,0,0,0-3.63-2.57,8.48,8.48,0,0,0-7.5-.18c-.45.25-.88.46-1.3.67-5-3.49-1.55-8.56,0-12.89a11.9,11.9,0,0,0,.46-1.59.55.55,0,0,1,0-.14c.46-1.48,3.84-13.87-4.93-24.76a17.33,17.33,0,0,1-1.87-2.81,12.83,12.83,0,0,1-.6-10.82,21.6,21.6,0,0,1,5.92-8.13s0,0,0,0l0,0a18.32,18.32,0,0,1,9.37-4.37c15.35,2.08,31.59,14.93,32.65,15.81a.09.09,0,0,0,.07,0C754.25,331,760.34,345.21,760.16,364.26Z"/><path class="cls-3" d="M745.42,320.8c-1.52-1.23-33.07-26.24-49.84-11.44l0,0a0,0,0,0,0,0,0,69.29,69.29,0,0,0-21.16,7.25l-.57,0s5.18-17.75,26.49-17.54C713.05,299.25,732.25,305.48,745.42,320.8Z"/><path class="cls-3" d="M795.1,401.28c-2.61,14.41-14.62,26.94-14.09,41.7.5,14,6.66,27.58,8.17,41.56.53,4.93.36,13-.66,21.77,0,.14,0,.24,0,.38-8.74-16.2-30.85-38.6-40.54-48a66,66,0,0,1,5.46-9.47c6.31-9,12.08-18.17,16.06-28.42,2.61-6.52,6.27-16.1,3-23a8.56,8.56,0,0,0-2.36-3.1,13,13,0,0,0-1.13-4.08,7.52,7.52,0,0,0-6.73-4.65,16.55,16.55,0,0,0-6.48.91l0-.17,0-.11a50.37,50.37,0,0,0,4.44-15.25v-.07c4.75-4.44,13.35-9.3,25.22-3.34,5,2.5,7.85,6.9,9.29,12C796.79,386.77,796.26,394.9,795.1,401.28Z"/><path class="cls-4" d="M712.33,752.63c-26.48-39.13-57.16-72.8-86.49-100.41C618.62,645.46,611.5,639,604.53,633v0h0c-14.33-12.47-28-23.32-40.18-32.48A58.58,58.58,0,0,0,492,602a57.15,57.15,0,0,0-13.17,15.18L334.6,855.65H285.33a13.51,13.51,0,1,0,0,27h92.14c9.08-9.19,18.24-18.24,27.26-27,54-52.55,104.7-96.22,124.29-112.81"/><path class="cls-4" d="M592,575.52a170.42,170.42,0,0,1,20.24-91.65"/><path class="cls-4" d="M700.9,537.19c-18.78,78.09-80.45,48.25-80.45,48.25l-23.87-8.34-54.07-18.84c-8.7-3.88-19-3.63-26.94,1.54-7,4.51-23,23.43-23.56,42.16"/><path class="cls-4" d="M519.51,717.41q4.61,13.43,9.51,25.43c73.44,179.59,200.65,134.82,200.65,134.82,112.42-54.55,116-260.48,58.25-371-.31-.67-.67-1.3-1-2-10.77-20.14-25-38.6-44.2-50.57a91.31,91.31,0,0,0-17.33-8.39q-5.22-1.85-10.81-3.27"/><path class="cls-4" d="M533.36,453.41c25.67-6.73,52-10.25,78.5-13.14,13.31-1.44,28.42-2.75,43.85-3.06"/><path class="cls-4" d="M499.33,322.46s-4.71-27.32,6.86-37.49c5.15-4.52,6.06-10.41,7.2-16.77,1.55-8.63,10.69-12.28,16.31-4.61,5.07,6.92,3.37,19.47,3.37,27.42"/><path class="cls-4" d="M501.83,290.94s-13.13.42-11.13-28v-.07c.34-4.49,3.68-11.7,8.09-12.57l3.42-.67a11.29,11.29,0,0,0,9.09-11.06V206.92c0-5.27,3.53-10.12,8.69-11.14a10.91,10.91,0,0,1,13.07,10.67l.29,259.14"/><path class="cls-4" d="M498.38,305.77c-23.1,2.74-24.86-26-24.55-38.61,0-.07,0-.1,0-.14"/><path class="cls-4" d="M459.64,279.81s-2.77,36.9,20.41,17.79"/><path class="cls-3" d="M712.62,945.64a11.68,11.68,0,0,1-17.15,1.12,34.18,34.18,0,0,0-5.64-4c11.52-36.35-25.46-61.28-26.45-61.92,5.07,1.8,9.9,3.52,14.4,5.21q5,1.86,9.51,3.56a44,44,0,0,1,24.37,22.86C715.58,921,719.31,937.68,712.62,945.64Z"/><path class="cls-4" d="M786.9,504.72c26.9,38.18,6.84,91.43-20.26,123.58-36.89,43.77-90.31,48.35-140.8,23.92"/><path class="cls-4" d="M717.56,444.81c-5.08-7.49-10.95-16-12.81-22-3.06-9.85-1.9-19.5,4.14-28.14,2.63-3.76,6.49-6.55,8.74-10.58,2.11-3.77,2.31-8.27-.86-11.48-2.75-2.79-7.21-4.67-11.13-2.74-3.34,1.64-5.13,3.45-9,.77-5.76-4-.61-10,.32-14.61.16-.76.32-1.52.52-2.31"/><polyline class="cls-4" points="649.52 405.4 659.12 454.82 661.09 465.01"/><path class="cls-4" d="M658.41,451.06c-8,7.78-15.22,18.74,2.37,22.32,23.48,4.78,48.93-20.13,56.78-28.57"/><path class="cls-4" d="M673.78,316.63s5.18-17.72,26.47-17.52,60.37,17.35,59.93,65.16-55.45,58.56-55.45,58.56"/><path class="cls-3" d="M595,122.8a72.78,72.78,0,0,1-116.9,57.86A72.75,72.75,0,0,1,576.53,74.41,72.33,72.33,0,0,1,595,122.8Z"/><path class="cls-4" d="M745.49,320.85s-32.75-26.65-49.92-11.5c0,0-12.84,10.25-3.51,21.83s4.88,24.92,4.88,24.92"/><path class="cls-4" d="M755.2,386.81c4.3-1.41,10.46-2.19,13.21,3.73,3.28,6.94-.39,16.52-3,23-4,10.25-9.76,19.44-16.06,28.43a66.57,66.57,0,0,0-6.66,12.15"/><path class="cls-4" d="M787.92,506.69c0-.14,0-.24,0-.38,1-8.77,1.2-16.84.67-21.77-1.52-14-7.68-27.54-8.17-41.56-.53-14.76,11.48-27.29,14.08-41.7,2-11.06,2.19-27.54-9.61-33.42s-20.46-1.09-25.22,3.34"/><path class="cls-4" d="M668.41,406.19c-6.68.92-13.42,1.12-18.89-.79-10.7-3.79-16.59-15.76-7.72-46.94,11.08-38.95,42.92-47.32,53.69-49a5.41,5.41,0,0,0-2.38.44"/><ellipse class="cls-4" cx="667.99" cy="339.67" rx="17.79" ry="6.02" transform="translate(-33.82 602.43) rotate(-47.48)"/><path class="cls-4" d="M696.48,357.68a181.59,181.59,0,0,1-21.87-16.49"/><path class="cls-4" d="M406.31,853.18c-2.18,14.58,6.31,42.09,98.3,47.52,109.92,6.48,167,30.88,185.22,42a33.55,33.55,0,0,1,5.63,4,11.69,11.69,0,0,0,17.16-1.12c6.69-8,3-24.69-1-33.18a44,44,0,0,0-24.38-22.86q-4.49-1.7-9.51-3.56c-4.5-1.69-9.33-3.41-14.4-5.21,0,0,0,0,0,0-13.41-4.79-28.56-10-44.41-15-14.16-4.44-28.84-8.77-43.32-12.54-1.37-.35-2.67-.71-4-1-18.21-4.62-36-8.24-51.64-10.07"/><path class="cls-4" d="M575.59,853.29h0A158,158,0,0,1,600,848.5"/><path class="cls-4" d="M473.85,273.09c-.21-2.14-.51-4.83-1.78-6.63-1.76-2.51-4.52.26-5.78,1.85-6.92,8.71-9.75,19.89-12.55,30.44a216.87,216.87,0,0,0-5.65,29.48c-2.33,19-2.33,38.26-2.5,57.41a519.89,519.89,0,0,0,2.89,64.1c3.69,36.14,16.83,72.38,54.83,83.61,27.62,8.21,60,7.82,90.59,4.72"/><path class="cls-4" d="M473.76,269.14A11.67,11.67,0,0,1,481,257.85c4.09-1.53,9.79-.41,9.67,4.9a1.15,1.15,0,0,1,0,.19"/><circle class="cls-4" cx="522.16" cy="122.78" r="72.78"/><path class="cls-4" d="M215.24,882.62c3.82,0,208.48,0,208.48,0"/><path class="cls-4" d="M677.78,886.05H815.25"/><path class="cls-4" d="M608.26,117.52c4.3,3.45,6.69,7.29,6.69,11.27,0,4.79-3.41,9.29-9.51,13.31"/><path class="cls-4" d="M558.6,156.47c-3.91.53-8,1-12.11,1.34"/><path class="cls-4" d="M504.43,158.23c6,.39,12.15.6,18.46.6,4.72,0,9.37-.11,13.91-.35"/><path class="cls-4" d="M435.19,119.63c-2.78,2.92-4.3,6-4.3,9.16,0,5.91,5.25,11.37,14.27,16.06,10.67,5.53,26.73,9.82,45.78,12.11"/><path class="cls-1" d="M316.79,253.87h0a95.68,95.68,0,0,1,95.68,95.68V505.22a0,0,0,0,1,0,0H221.11a0,0,0,0,1,0,0V349.55A95.68,95.68,0,0,1,316.79,253.87Z"/><line class="cls-1" x1="314.55" y1="467.9" x2="314.48" y2="467.9"/><path class="cls-1" d="M280.6,467.9H249.53V358.48a67.27,67.27,0,0,1,67.27-67.27h0a67.27,67.27,0,0,1,67.27,67.27V467.9H323.56"/></svg>