<svg id="Layer_2" data-name="Layer 2" xmlns="http://www.w3.org/2000/svg" viewBox="0 0 1000 1000"><defs><style>.cls-1,.cls-7,.cls-8{fill:none;stroke-miterlimit:10;}.cls-1{stroke:#ccdde2;}.cls-1,.cls-7{stroke-width:4.47px;}.cls-2{fill:#3fbdf1;}.cls-3{fill:#353642;}.cls-4{fill:#fff;}.cls-5{opacity:0.72;}.cls-6{opacity:0.54;}.cls-7,.cls-8{stroke:#000;}.cls-8{stroke-width:2.98px;}</style></defs><path class="cls-1" d="M317.35,656.54c11.42-26,18.63-56,19.31-90.79,3.3-170.16,195.7-301.47,409.13-157.14S770.59,950,770.59,950"/><path class="cls-1" d="M168.13,950c-9.43-7.41-81.32-77.7-38.14-117.93,18.45-17.17,58.16-37.22,97.94-67.79"/><path class="cls-1" d="M682.56,523.5v0A19.36,19.36,0,0,0,688.37,534l0,0"/><path class="cls-2" d="M515,600.76c-1.48.39-2.73.67-3.72.9-.74.13-1.35.26-1.77.32h-.09l-.58.1s-.06-.07-.1-.07c-10-7.34-6.93-21-6.93-21,29.9,4.71,36.1-19.51,36.1-19.51-.39-11.61-2.6-17.07-7.7-20.21-5.33-3.34-13.83-4.2-26.82-7l-2.15-.48c-19.32-4.39-28.33-24.22-31.89-35.22a58.73,58.73,0,0,1-2-7.45c-21.88,8.22-35.58,19.86-43.47,28.59-3.12-61.89,59-53,59-53a119.63,119.63,0,0,1,30.9,4.52c2.28,1,4.46,2,6.54,3,1,.51,2.06,1.06,3,1.63s2,1.13,2.92,1.7c.67.39,1.35.81,2,1.25a85.51,85.51,0,0,1,31.5,35.68,5.85,5.85,0,0,1,.26.61,20.45,20.45,0,0,1,.83,2.08C574.89,578.72,531.51,596.33,515,600.76Z"/><path class="cls-2" d="M515,600.76c-4.36-7.25-2.34-16-2.34-16,29.87,4.72,36.09-19.5,36.09-19.5-.64-17.81-5.45-21.15-18.54-24-4.85-1.09-10.81-2.09-18.13-3.72a32.64,32.64,0,0,1-8.69-3.31c-19.89-10.9-25.25-39.39-25.25-39.39-3.08,1.15-6,2.4-8.79,3.69a58.73,58.73,0,0,1-2-7.45c-21.88,8.22-35.58,19.86-43.47,28.59-3.12-61.89,59-53,59-53a119.63,119.63,0,0,1,30.9,4.52c2.28,1,4.46,2,6.54,3,1,.51,2.06,1.06,3,1.63s2,1.13,2.92,1.7c.67.39,1.35.81,2,1.25a85.51,85.51,0,0,1,31.5,35.68,5.85,5.85,0,0,1,.26.61,20.45,20.45,0,0,1,.83,2.08C574.89,578.72,531.51,596.33,515,600.76Z"/><path class="cls-3" d="M619.83,874.67C624.45,904.83,630.1,934.5,636,950H370.79C338.86,859.34,354,760.3,354,760.3l-47.1,1.48c28.33-49.7,18.25-91.72,13.47-105.74,37-6.29,74-11.23,111.39-11.65-1,21.4,22.36,46,56.05,39.53,13.66-2.6,30.31-8,30.67-31.93l8.79,1.54c12.16,2,23.16,4.14,33.59,6.55,27,6.22,50.2,14,79.11,23.84-40,29.61-20.12,98-20.12,98l1,2.28-12.77-2.28S612.81,828.83,619.83,874.67Z"/><circle class="cls-2" cx="344.67" cy="167.69" r="47.88"/><path class="cls-4" d="M360.41,151.71a16.69,16.69,0,0,0-2.69-4.29,12.06,12.06,0,0,0-15.79-2.36,12.36,12.36,0,0,0-5.62,9.53,12.37,12.37,0,0,0-14,19.19c3.43,4.47,9.26,7.41,14.54,9.12a44.16,44.16,0,0,0,8.51,1.81c1.46.16,9.81,1.28,10.59,0C361.05,176.58,364.75,161.65,360.41,151.71Z"/><path class="cls-2" d="M264.11,152.13c-3.14-.35-6.32-.57-9.49-.74-3.4.17-6.8.42-10.2.84a116,116,0,0,0-31.25,8,87.13,87.13,0,0,0-12.9,6.61,76.21,76.21,0,0,0-8.5,5.93,38.85,38.85,0,0,1-4.75-9.24,39.73,39.73,0,1,1,77.09-11.39Z"/><path class="cls-4" d="M244.42,152.23a116,116,0,0,0-31.25,8c-.58-1.54-1.06-3-1.22-3.5a37.21,37.21,0,0,1-1.73-7c-.61-4.56-.52-10,1.6-14.15a10.25,10.25,0,0,1,19.38,3.56,10.46,10.46,0,0,1,9.17.77A10,10,0,0,1,244.42,152.23Z"/><path class="cls-2" d="M200.27,166.83a76.21,76.21,0,0,0-8.5,5.93,68.4,68.4,0,0,0-5.2,4.46A36.26,36.26,0,0,0,181,184a48.87,48.87,0,0,0-3.82,7.25,74.59,74.59,0,0,0-3.85,11.9,157.51,157.51,0,0,0-3.43,26.66,35,35,0,0,1,15.34-66.31c.61,0,1.18,0,1.79,0A34.61,34.61,0,0,1,200.27,166.83Z"/><path class="cls-4" d="M181,184a48.87,48.87,0,0,0-3.82,7.25,74.59,74.59,0,0,0-3.85,11.9c-2.08-2.89-3.85-6.35-4.13-9.81a9.08,9.08,0,0,1,9-9.79A8.29,8.29,0,0,1,181,184Z"/><g class="cls-5"><circle class="cls-2" cx="400.02" cy="135.3" r="26.36"/><path class="cls-4" d="M411.46,140a9.45,9.45,0,0,0,1.62-2.26,6.64,6.64,0,0,0-2.1-8.54,6.83,6.83,0,0,0-6-.87,6.81,6.81,0,0,0-12.71-3.14c-1.56,2.69-1.84,6.27-1.6,9.32a23.66,23.66,0,0,0,.86,4.71c.22.78,1.39,5.26,2.19,5.4C398.92,145.5,407.3,144.27,411.46,140Z"/></g><g class="cls-5"><circle class="cls-2" cx="388.27" cy="411.61" r="18.82"/><path class="cls-4" d="M396.43,415a6.54,6.54,0,0,0,1.15-1.62,4.74,4.74,0,0,0-1.49-6.09,4.87,4.87,0,0,0-4.31-.62,4.87,4.87,0,0,0-9.07-2.25,11.91,11.91,0,0,0-1.15,6.66,16.84,16.84,0,0,0,.62,3.36c.16.55,1,3.76,1.56,3.85C387.48,418.89,393.46,418,396.43,415Z"/></g><rect class="cls-2" x="336.88" y="179.5" width="67.8" height="67.8" rx="19.25" transform="translate(19.36 457.38) rotate(-64.69)"/><path class="cls-4" d="M400.56,219.32l-9.07,19.18a16.76,16.76,0,0,1-22.26,8l-23-10.88a16.77,16.77,0,0,1-8-22.26l.61-1.3c6.25-5,17.06-11.72,21-2.55,5.68,13.2,13.06,8.93,22.5,3.41C390.26,208.25,399.72,206.7,400.56,219.32Z"/><circle class="cls-4" cx="364.91" cy="191.84" r="7.08"/><rect class="cls-2" x="421.26" y="264.14" width="89.27" height="89.27" rx="25.34" transform="translate(-12.4 597.96) rotate(-64.69)"/><path class="cls-4" d="M505.1,316.56l-12,25.25a22.07,22.07,0,0,1-29.31,10.49L433.55,338a22.07,22.07,0,0,1-10.49-29.31l.81-1.71c8.23-6.56,22.45-15.43,27.64-3.36,7.49,17.38,17.2,11.76,29.63,4.49C491.53,302,504,299.94,505.1,316.56Z"/><circle class="cls-4" cx="458.16" cy="280.38" r="9.32"/><path class="cls-2" d="M501.59,172.88a30.07,30.07,0,0,1,3,8.15,30.91,30.91,0,0,1-9.47,29c-3.13,2.77-7.12,4.94-10.3,7.84a16.29,16.29,0,0,0-4.91,7.53,6.4,6.4,0,0,1-1.17,2.75c-1.86,2-3.67-1.14-5.28-1.71a11.08,11.08,0,0,0-7.87.39A30.75,30.75,0,0,1,431.79,177c4.9-5,11.32-8.17,17.51-11.45,5.46-2.9,10.89-6,16.81-7.71C480.05,153.7,494.86,160.61,501.59,172.88Z"/><circle class="cls-4" cx="445.67" cy="202.37" r="6.67"/><circle class="cls-4" cx="463.64" cy="192.76" r="6.67"/><circle class="cls-4" cx="480.5" cy="183.74" r="6.67"/><path class="cls-2" d="M708.7,622.06v.16L706.23,679l-1.38,31.11c0-1.15.06-2.34.13-3.49-17.07-5.71-39-13.83-55.92-19.57-33.3-11.36-58.39-20.09-88.22-26.95-1.8-8.69-3.5-27.33,4.87-54.54,12-38.82,15.95-78.21,9.85-85.82a.77.77,0,0,0-.22-.22C571,503.87,559.52,514,559.52,514s.07.16.1.25a115.41,115.41,0,0,0-7.86-11.42,8.67,8.67,0,0,1,.45-1.66c3.69-11.1,23.35-13.77,23.35-13.77,28.78,2.12,43.92,14.95,51.56,31.8v0c6.73,21.27,2.76,44.33,1.89,66.15-.35,9.46-1.7,24,5.52,31.66,6.67,12.61,23.45,7.16,28,5.78h0c1.48-.42,5.32-.68,10.36-.84,10.27-.25,25.38-.06,34.59.1C707.93,622.06,708.32,622.06,708.7,622.06Z"/><path class="cls-2" d="M310.4,111.71a22.29,22.29,0,0,1-6.39.48A22.75,22.75,0,0,1,285.4,99.58c-1.33-2.79-2-6.06-3.45-8.9a12,12,0,0,0-4.33-5,4.67,4.67,0,0,1-1.71-1.39c-1-1.72,1.56-2.36,2.29-3.38a8.23,8.23,0,0,0,1.33-5.65,22.66,22.66,0,0,1,42.21-13.78c2.54,4.49,3.47,9.68,4.53,14.73.94,4.45,2,8.92,2,13.47C328.36,100.37,320.45,109.45,310.4,111.71Z"/><circle class="cls-4" cx="300.92" cy="66.11" r="4.91"/><circle class="cls-4" cx="304.06" cy="80.79" r="4.91"/><circle class="cls-4" cx="307.01" cy="94.57" r="4.91"/><g class="cls-5"><circle class="cls-2" cx="603.16" cy="252.91" r="37.32"/><path class="cls-4" d="M604.56,270.34a12.9,12.9,0,0,0,3.89.61,9.42,9.42,0,0,0,9.45-8.11,9.66,9.66,0,0,0-2.75-8.17A9.65,9.65,0,0,0,611,236.6c-4.39-.25-9.09,1.68-12.8,3.92a34.22,34.22,0,0,0-5.4,4.09c-.85.78-5.77,5.13-5.43,6.22C589.57,258,596.48,267.83,604.56,270.34Z"/></g><path class="cls-2" d="M620.49,405.23a42.26,42.26,0,0,1-8.36,9,43.77,43.77,0,0,1-42.71,6.56c-5.51-2.19-10.79-5.86-16.49-8a23.09,23.09,0,0,0-12.65-1.4,9.07,9.07,0,0,1-4.22.28c-3.7-1.08-.9-5.36-1.21-7.76a15.75,15.75,0,0,0-5.51-9.7,43.54,43.54,0,0,1,41.45-74.59c9.46,3,17.55,9.09,25.65,14.82,7.14,5.05,14.49,10,20.47,16.32C631,365.77,631.71,388.91,620.49,405.23Z"/><circle class="cls-4" cx="547.54" cy="353.39" r="9.44"/><circle class="cls-4" cx="571.15" cy="369.97" r="9.44"/><circle class="cls-4" cx="593.31" cy="385.52" r="9.44"/><g class="cls-6"><path class="cls-2" d="M333.82,125.1a31.72,31.72,0,0,1-.75,4.84l-4.18,18.13c-1.28,5.55-2.72,11.4-6.69,15.48-7.4,7.57-19.79,5.84-30.12,3.54l-25.36-5.63c-5.82-1.3-11.74-2.62-17-5.52s-9.74-7.61-11-13.46c-.89-4.31.07-8.76,1-13.06L243.67,112c1.27-5.7,2.71-11.73,6.82-15.87,7.33-7.39,19.47-5.71,29.64-3.51l25.93,5.63C321.72,101.68,335.07,108.94,333.82,125.1Z"/><path class="cls-4" d="M298.85,125.59a8.45,8.45,0,0,1-3.28,14.26l-7.73,2.37-7.72,2.36a8.45,8.45,0,0,1-10.71-10l1.81-7.88,1.81-7.87a8.46,8.46,0,0,1,14-4.29l5.91,5.51Z"/></g><g class="cls-6"><path class="cls-2" d="M618.8,160a31.91,31.91,0,0,1-.75,4.84L613.87,183c-1.28,5.55-2.72,11.4-6.69,15.47-7.4,7.58-19.79,5.84-30.12,3.55l-25.36-5.64c-5.82-1.29-11.74-2.62-17-5.51s-9.74-7.62-11-13.46c-.89-4.31.07-8.76,1-13.06L528.66,147c1.26-5.71,2.7-11.73,6.81-15.88,7.33-7.38,19.47-5.71,29.64-3.5L591,133.21C606.7,136.6,620.05,143.87,618.8,160Z"/><path class="cls-4" d="M583.83,160.51a8.46,8.46,0,0,1-3.28,14.27l-7.73,2.36-7.72,2.37a8.45,8.45,0,0,1-10.71-10l1.81-7.87,1.81-7.87a8.46,8.46,0,0,1,14-4.29l5.91,5.51Z"/></g><g class="cls-6"><path class="cls-2" d="M499.13,403.28a15,15,0,0,1-.36,2.25L496.83,414c-.6,2.58-1.27,5.3-3.12,7.2-3.44,3.53-9.21,2.72-14,1.65l-11.81-2.62a29.26,29.26,0,0,1-7.9-2.57,9.84,9.84,0,0,1-5.1-6.27,14.62,14.62,0,0,1,.47-6.08l1.8-8.1c.59-2.65,1.26-5.46,3.18-7.39,3.41-3.44,9.06-2.66,13.79-1.63l12.08,2.62C493.49,392.37,499.71,395.75,499.13,403.28Z"/><path class="cls-4" d="M482.84,403.51a3.93,3.93,0,0,1-1.53,6.64l-3.59,1.1-3.6,1.1a3.93,3.93,0,0,1-5-4.64L470,404l.84-3.67a3.93,3.93,0,0,1,6.52-2l2.75,2.56Z"/></g><g class="cls-6"><path class="cls-2" d="M374.64,52.13A19.46,19.46,0,0,1,377,53.58l8.4,6.14c2.58,1.87,5.27,3.9,6.49,6.84,2.27,5.47-1.35,11.46-4.8,16.26l-8.47,11.8a34.74,34.74,0,0,1-6.56,7.52c-2.64,2-6.06,3.34-9.33,2.67-2.41-.48-4.49-2-6.49-3.39l-8.1-5.81c-2.65-1.9-5.43-4-6.66-7-2.19-5.4,1.34-11.27,4.71-16l8.59-12.1C359.93,53.21,366.6,47.94,374.64,52.13Z"/><path class="cls-4" d="M367.2,70.22A4.72,4.72,0,0,1,373.81,75l-.48,4.5L372.85,84a4.72,4.72,0,0,1-7.48,3.31l-3.65-2.66L358.07,82a4.72,4.72,0,0,1,.87-8.14l4.13-1.83Z"/></g><path class="cls-2" d="M770.55,807a3,3,0,0,1-.06.52.19.19,0,0,0,0,.13,53,53,0,0,1-11.23,25.47c-.07.06-.1.16-.16.22-9.14,11.39-22.39,19.61-35.8,24.77-13.7,5.33-27.59,7.48-37.48,6.74h-.22c-12.1-.9-25.38.67-37,2.85-1.22.23-2.44.45-3.66.71-7.67,1.54-15.24,3.46-22.74,5.58l-1.41.39-.94.25c-7-45.84-11.74-92.78-11.74-92.78l143,25.41A50.69,50.69,0,0,0,770.55,807Z"/><path class="cls-7" d="M476.88,589.1c-7.52,7.46-17.59,8.9-27.48,11.1-22.47,5-41.31-.68-42.3-26.51-.64-16.62,1.12-33.25,11.18-47.05,12.05-16.53,30.56-27.54,49-35.58,0,0,8.46,43.28,47,45.16s29.16,52.69-16,44.22"/><path class="cls-7" d="M505.85,602.08c1,0,1.92,0,2.85-.07a5.16,5.16,0,0,1,.68,0h.09l1.77-.16"/><path class="cls-7" d="M548.55,496.37a86.5,86.5,0,0,0-22.33-18.87,30.75,30.75,0,0,0-2.92-1.7c-1-.57-2-1.12-3-1.63-2.11-1.09-4.3-2.12-6.54-3A107.36,107.36,0,0,0,472,462.84c-77.12,0-55.69,66.73-55.69,66.73"/><path class="cls-7" d="M561.35,659.44c-2.66-14.18.67-36.25,4.36-53.9,3.31-15.72,6.93-27.91,6.93-27.91,5.46-32.08,5.23-49.28,2.7-58.13C571,503.87,559.52,514,559.52,514"/><path class="cls-7" d="M575.34,519.5C571,503.87,559.52,514,559.52,514a71,71,0,0,0-7.31-12.83q-1.74-2.42-3.66-4.72v0c3.43-9.11,12.58-14.54,22-15.27,24.73-1.9,49.11,14.47,56.56,38v0c6.73,21.27,2.76,44.33,1.89,66.15-.35,9.46-1.7,24,5.52,31.66.38.39.74.74,1.15,1.09,6,5.17,15.56,5.46,26.89,4.69h0c3.3-.23,6.77-.51,10.36-.84,11-1,23-1.86,34.59.1l1.15.19c-.35,18.9-1.51,37.86-2.47,56.76-.51,9.2-1,18.41-1.25,27.62-17.07-5.71-39-13.83-55.92-19.57L640,683.92c-28.91-9.85-52.07-17.62-79.11-23.84-10.43-2.41-21.43-4.56-33.59-6.55l-12.93-2.27a3.72,3.72,0,0,1-3.08-3.69V601.82a56.16,56.16,0,0,0,42.7-25.92c12.51-20.12,13.7-40.71,6.86-58.78A20.45,20.45,0,0,0,560,515a5.85,5.85,0,0,0-.26-.61c0-.06-.06-.16-.09-.23"/><path class="cls-7" d="M241.56,683.92c4-31,5.84-62.53,9.72-93.71"/><path class="cls-7" d="M251.92,585.33c1.09-8.44,2.38-16.88,4-25.22.06-.41.13-.8.22-1.18.9-4.94,1.9-9.85,3-14.76,3.34-14.69,15-25.44,23.29-37.41l.51-1.28a162.19,162.19,0,0,0,28.49-88.26c.2-11.42-.25-34-13.34-38.66-7.35-2.63-15.15,2.51-19.22,8.38a33.5,33.5,0,0,0-4,7.83"/><path class="cls-7" d="M210.12,478.47s0,0,0,0v0"/><path class="cls-7" d="M370.79,950C338.86,859.34,354,760.3,354,760.3l-47.09,1.48-124.22,3.94a51,51,0,0,1-52.39-56.43L167.2,574.58"/><polyline class="cls-7" points="168.99 568 172.23 556.2 175.99 542.82"/><path class="cls-7" d="M179.19,531.3l2.15-7.73a47.23,47.23,0,0,0-2-31l-4.27-10.2c-2.79-8.5-3.66-12.61-.16-20.92a36.75,36.75,0,0,1,6.87-10.65c8.43-9.3,20.3-13.92,32.53-15.5s25.73-.35,35.57,7.58c6.68,5.38,13,18.19,8.63,26.56-3.17,6.09-9.88,7.86-15.59,5.68a13.92,13.92,0,0,1-5.26-3.5c-6.74-7.06-21-8.6-26-1.73v0"/><path class="cls-7" d="M704.66,717.83c0-2.51.09-5,.19-7.54v-.2c0-1.15.06-2.34.13-3.49"/><path class="cls-7" d="M691.83,477.63c-11.71,6.26-26.09,22-1.83,59,8,12.19,16.45,25.37,17.64,40.42a451,451,0,0,1,1.06,45.2"/><path class="cls-7" d="M578.26,776.6l27.84,4.94,2,.35,12.77,2.28L751.08,807.3a50.69,50.69,0,0,0,19.47-.26s0,0,0,0a51.07,51.07,0,0,0,40.51-48L791.82,601.53l-4.26-33.62A47.15,47.15,0,0,1,794,537.5l5.71-9.5s9.94-14.5-7.45-15.56c-9.37-.55-19.12,2-27.59,5.84-4.84,2.15-11.64,6-14.37,11.29a9.82,9.82,0,0,0-1.06,6.58c2,10.33,15,14.69,23.58,10.33"/><path class="cls-7" d="M798,513.19s9.83-5.85,3.18-20.24c-2.36-5.12-9.51-8.67-24.9-7.69-41,2.61-57.06,44.77-25.93,44.31"/><path class="cls-7" d="M788.66,485.19c9.1-12.54-7-24.54-18.73-24.13-11.06.39-22.25,4.48-31.94,9.6-13.48,7.12-30.88,20.91-25.9,38.36,1.47,5.14,13.1,11.49,20.7,7.82"/><path class="cls-7" d="M711.23,502.82s0,0,0,.06c-6.35,12.13-36.41,0-19.44-25.25h0a70.89,70.89,0,0,1,14.11-14.79c42.32-34.58,51.78.58,51.72-1.51"/><path class="cls-7" d="M729.65,517.12s15.48,11,10.73,29.33"/><path class="cls-7" d="M184.65,429.13c-1-3.94-.87-8.91,1.47-15.27,3.37-9.14,13.19-15.14,22.75-19.09,3.49-1.44,7-2.63,10-3.56,10.43-3.2,21.88-4.9,33-3.78a61,61,0,0,1,11.07,2.12,48.72,48.72,0,0,1,11.87,5.22c9.14,5.62,15.33,14.15,19.05,25.35,3.24,9.66,4.49,21.14-3.53,27.17"/><path class="cls-2" d="M291.06,575.83l-2.95,14.28a3.65,3.65,0,0,1-4.43,2.82c-11.35-2.69-21.3-5.19-31.76-7.6-5.19-1.22-10.55-2.37-16.23-3.56C213.49,577.18,191.32,572,169,568c-9.33-1.67-18.67-3.12-28.07-4.21-5.26-.61-10.59-.86-15.88-1.25a5.65,5.65,0,0,1-3.21-1.09c-5-3.66,0-15.56,1.09-20.5,0-.06,0-.13,0-.19.77-3.79,22.55-2.7,53,2.05,10.62,1.67,22.29,3.75,34.52,6.26,17.19,3.53,32.69,7.34,45.36,11,2.18.64,4.27,1.25,6.26,1.86,0,0,0,0,.06,0,2.53.8,4.91,1.57,7.15,2.34C283.43,569.1,291.58,573.3,291.06,575.83Z"/><path class="cls-7" d="M291.06,575.83l-2.95,14.28a3.65,3.65,0,0,1-4.43,2.82c-11.35-2.69-21.3-5.19-31.76-7.6-5.19-1.22-10.55-2.37-16.23-3.56C213.49,577.18,191.32,572,169,568c-9.33-1.67-18.67-3.12-28.07-4.21-5.26-.61-10.59-.86-15.88-1.25a5.65,5.65,0,0,1-3.21-1.09c-5-3.66,0-15.56,1.09-20.5,0-.06,0-.13,0-.19.77-3.79,22.55-2.7,53,2.05,10.62,1.67,22.29,3.75,34.52,6.26,17.19,3.53,32.69,7.34,45.36,11,2.18.64,4.27,1.25,6.26,1.86,0,0,0,0,.06,0,2.53.8,4.91,1.57,7.15,2.34C283.43,569.1,291.58,573.3,291.06,575.83Z"/><path class="cls-7" d="M259.92,461.75l2.84,5.69c3.57,3.91,8.51,6.38,15.28,4.68,13.28-3.3,14.59-14.31,12.28-24.83a47.46,47.46,0,0,0-1.54-5.64c-3.11-9.28-7.92-16.75-14.66-22.2a45,45,0,0,0-16.26-8.38A61.36,61.36,0,0,0,243,408.7a86.76,86.76,0,0,0-29.19,4c-9.43,2.89-22.33,7.86-29.19,16.39a22,22,0,0,0-3.6,6.26c-2.11,5.74-2.47,10.39-1.73,14.15L180,453"/><path class="cls-7" d="M263.6,389.77l3.3-13.67L270.82,360a17.38,17.38,0,0,0-14.09-21.18,16.4,16.4,0,0,0-2.79-.22A17.29,17.29,0,0,0,237,352.23c-1,4.66-2.25,10.33-3.63,16.72-1.31,6.06-2.76,12.7-4.3,19.7"/><line class="cls-8" x1="224.43" y1="410.14" x2="224.43" y2="410.11"/><path class="cls-7" d="M211.69,469.88v0c-1,4.91-1.57,8-1.54,8.53,0,0,0,0,0,.07v0c-4.33,29.1-17.07,44.66-30.93,52.77a64,64,0,0,1-27.68,8.25"/><path class="cls-7" d="M243,475.11S219.78,537,256.09,558.94a43.55,43.55,0,0,0,6,3,49.26,49.26,0,0,0,7.67,2.47"/><path class="cls-7" d="M286.19,592.64s.16,2.86-34.91-2.43c-12-1.8-28.13-4.56-49.82-8.73-13.6-2.6-24.9-4.91-34.26-6.9-49.18-10.52-45.37-13.12-45.37-13.12"/><path class="cls-2" d="M385,244.75c-7.48,39.65-32.12,81.39-62,108.18-12.22,11-26.43,18.67-41.77,21.69a73.34,73.34,0,0,1-14.3,1.47L270.82,360A17.41,17.41,0,0,0,260.94,340a18.89,18.89,0,0,0-4.2-1.25,16.43,16.43,0,0,0-2.8-.22A17.29,17.29,0,0,0,237,352.22c-.61,2.92-1.35,6.23-2.15,9.85-38-25.12-54.48-78.85-52.65-122.48.58-14.5,1.38-33.59,7.73-48.35a41.52,41.52,0,0,1,9.4-14c18-16.94,42.64-24.67,68.05-25.83a168.07,168.07,0,0,1,56.72,12.74C357.7,178.34,392.76,203.5,385,244.75Z"/><path class="cls-2" d="M385,244.75c-7.48,39.65-32.12,81.39-62,108.18-12.22,11-26.43,18.67-41.77,21.69L284.78,360a17.38,17.38,0,0,0-14.09-21.18,16.4,16.4,0,0,0-2.79-.22,17.07,17.07,0,0,0-7,1.47,18.89,18.89,0,0,0-4.2-1.25,16.43,16.43,0,0,0-2.8-.22A17.29,17.29,0,0,0,237,352.22c-.61,2.92-1.35,6.23-2.15,9.85-38-25.12-54.48-78.85-52.65-122.48.58-14.5,1.38-33.59,7.73-48.35a41.52,41.52,0,0,1,9.4-14c18-16.94,42.64-24.67,68.05-25.83a168.07,168.07,0,0,1,56.72,12.74C357.7,178.34,392.76,203.5,385,244.75Z"/><path class="cls-7" d="M385,244.76c-7.47,39.65-32.11,81.39-62,108.18C307,367.28,287.69,376,266.9,376.1L270.82,360a17.38,17.38,0,0,0-14.09-21.18,16.4,16.4,0,0,0-2.79-.22A17.29,17.29,0,0,0,237,352.23c-1,4.66-2.25,10.33-3.63,16.72-46.9-20.79-67.15-81.2-65.12-129.35.57-14.5,1.37-33.59,7.73-48.35a41.37,41.37,0,0,1,9.4-14c35.41-33.3,96.34-31,138.72-13.09C357.69,178.35,392.76,203.5,385,244.76Z"/><path class="cls-7" d="M384.8,246.19c8.09,9.68,15.68,25.9,9,50a50.34,50.34,0,0,1-4.38,10.93l0,0v0c-10.62,19-31.12,22.33-44.94,22.13"/><path class="cls-7" d="M378.64,266.46c7,8.38,13.47,21.65,10.77,40.68l0,0v0a69.69,69.69,0,0,1-1.89,9.05c-10,35.92-46.71,34.15-59.31,32.4"/><path class="cls-7" d="M182.59,316c-7.82,1.61-52.07-7.47-52.61-44.36a34.14,34.14,0,0,1,2.76-14.57c6.93-15.62,25.21-20.56,35.74-22.17"/><path class="cls-7" d="M174.63,297.51c-8,.49-50.51-14.68-45.9-51.29a34.2,34.2,0,0,1,4.77-14c9-14.51,27.84-16.84,38.48-17"/><path class="cls-7" d="M354,760.31s.91-6.95,5.91-22.65"/><path class="cls-7" d="M518.46,651.93V652c-.36,23.91-17,29.33-30.67,31.93-33.69,6.44-57.08-18.13-56.05-39.53v0"/><path class="cls-7" d="M438.13,520.37s1,11-8.57,25.19c-2.56,3.82,6.3,5.39,8.41,6.1"/><ellipse class="cls-7" cx="462.22" cy="535.81" rx="20.58" ry="16.73" transform="translate(-232.91 668.2) rotate(-60)"/><ellipse class="cls-7" cx="420.38" cy="524.76" rx="20.58" ry="16.73" transform="matrix(0.5, -0.87, 0.87, 0.5, -244.27, 626.43)"/><path class="cls-4" d="M423.17,507.44v3a9.35,9.35,0,0,1,4.76,1.25,10.45,10.45,0,0,1,4.91,7.68,17.24,17.24,0,0,1-2.31,11.27c-3,5.15-8,8.47-12.95,8.47a9.34,9.34,0,0,1-4.76-1.24,10.48,10.48,0,0,1-4.91-7.68,17.27,17.27,0,0,1,2.31-11.28c3-5.14,8-8.47,12.95-8.47v-3m0,0c-5.78,0-11.91,3.68-15.53,10-5,8.66-3.35,19,3.69,23a12.36,12.36,0,0,0,6.25,1.65c5.78,0,11.91-3.69,15.54-10,5-8.65,3.34-19-3.7-23a12.43,12.43,0,0,0-6.25-1.64Z"/><ellipse class="cls-2" cx="420.38" cy="524.76" rx="18.1" ry="14.71" transform="translate(-244.27 626.43) rotate(-60)"/><ellipse class="cls-2" cx="462.22" cy="535.81" rx="18.1" ry="14.71" transform="matrix(0.5, -0.87, 0.87, 0.5, -232.91, 668.2)"/><path class="cls-7" d="M438,524s3-4.47,9.77,3.44"/><ellipse class="cls-3" cx="464.16" cy="532.46" rx="4.86" ry="4.12" transform="translate(-240.72 578.25) rotate(-52.64)"/><ellipse class="cls-3" cx="430.43" cy="522.75" rx="4.86" ry="4.12" transform="translate(-246.27 547.62) rotate(-52.64)"/><path class="cls-7" d="M458.53,569.49c-20.48,17.4-31.23,1.9-31.23,1.9"/><path class="cls-7" d="M241.56,669.51c17.71-3.17,35.58-5.65,53.13-8.89q12.84-2.36,25.66-4.58c38.08-6.48,76.1-11.52,114.6-11.68a7.7,7.7,0,0,0,7.63-6.64l.71-5.33,4.49-33.23"/><polyline class="cls-7" points="511.24 601.82 511.24 601.66 511.24 600.86"/><polyline class="cls-7" points="121.76 950 341.11 950 365.92 950 578.45 950 618.27 950 883.71 950"/><path class="cls-7" d="M608.09,781.89s4.72,46.94,11.74,92.78C624.45,904.83,630.1,934.5,636,950"/><path class="cls-7" d="M619.83,874.67l.93-.25,1.42-.39c7.5-2.12,15.07-4,22.74-5.58,1.22-.26,2.44-.48,3.66-.71a153.28,153.28,0,0,1,25.92-2.53c3.85,0,7.54-.13,11.07-.32h.22c14.79-.84,27.15-3.21,37.48-6.74,16.87-5.74,28.26-14.56,35.8-24.77.06-.06.09-.16.16-.22a67,67,0,0,0,11.23-25.47.19.19,0,0,1,0-.13l.1-.48v0"/></svg>