<svg xmlns="http://www.w3.org/2000/svg" viewBox="0 0 500 500"><g id="freepik--Arrows--inject-6"><polygon points="407.97 208.26 383.99 209.74 390.2 213.24 258.43 280.87 223.11 267.91 116.23 321.3 108.97 324.93 117.38 329.67 126.19 325.27 223.6 276.61 258.95 289.59 398.57 217.94 403.55 220.74 407.97 208.26" style="fill:#fff"></polygon><polygon points="403.99 273.49 380 274.97 385.61 278.12 225.22 357.92 217.91 361.56 226.35 366.3 235.12 361.94 394.04 282.86 399.56 285.97 403.99 273.49" style="fill:#ffffff"></polygon><polygon points="305.44 179.47 281.46 180.95 287.07 184.1 126.67 263.9 119.36 267.54 127.8 272.28 136.57 267.92 295.49 188.84 301.02 191.95 305.44 179.47" style="fill:#fff"></polygon><polygon points="407.97 208.26 383.99 209.74 390.2 213.24 258.43 280.87 223.11 267.91 116.23 321.3 108.97 324.93 117.38 329.67 126.19 325.27 223.6 276.61 258.95 289.59 398.57 217.94 403.55 220.74 407.97 208.26" style="fill:#fff;opacity:0.30000000000000004"></polygon><polygon points="403.99 273.49 380 274.97 385.61 278.12 225.22 357.92 217.91 361.56 226.35 366.3 235.12 361.94 394.04 282.86 399.56 285.97 403.99 273.49" style="fill:#fff;opacity:0.7000000000000001"></polygon><polygon points="305.44 179.47 281.46 180.95 287.07 184.1 126.67 263.9 119.36 267.54 127.8 272.28 136.57 267.92 295.49 188.84 301.02 191.95 305.44 179.47" style="fill:#fff;opacity:0.5"></polygon></g><g id="freepik--Rocks--inject-6"><polygon points="95.98 416.91 388.17 416.91 378.57 406.41 358.39 401.46 350.48 388.32 336.24 370.9 318.83 370.9 300.41 393.51 274.55 396.76 236.44 406.41 212.94 411.34 203.89 407.54 147.41 412.22 129.47 409.2 95.98 416.91" style="fill:#000000"></polygon><polygon points="95.98 416.91 388.17 416.91 378.57 406.41 358.39 401.46 350.48 388.32 336.24 370.9 318.83 370.9 300.41 393.51 274.55 396.76 236.44 406.41 212.94 411.34 203.89 407.54 147.41 412.22 129.47 409.2 95.98 416.91" style="fill:#fff;opacity:0.7000000000000001"></polygon><polygon points="129.47 409.2 124.54 414.21 144.58 416.24 149.86 414.21 191.26 414.21 202.34 408.11 213.75 412.42 211.75 415.26 265.99 412.42 262.21 403.94 274.55 396.76 288.79 401.42 292.54 407.41 299.92 410.78 300.41 393.51 318.83 370.9 322.53 380.98 334.74 377.75 322.53 391.01 314.43 394.19 312.06 409.41 332.63 402.4 351.35 406.56 358.39 401.46 354.78 409.41 337.11 412.42 331.22 416.91 95.98 416.91 129.47 409.2" style="opacity:0.2"></polygon></g><g id="freepik--Character--inject-6"><path d="M272.18,210.77s18.54-1.1,22.59-2.24S317,198.61,317,198.61l2.59,5.25S299.77,216.55,295,218.17s-25.45,5.69-25.45,5.69Z" style="fill:#000000"></path><path d="M319.55,203.86S299.77,216.55,295,218.17c-3,1-12.49,3.06-19,4.39-3.72.76-6.46,1.3-6.46,1.3l1.77-8.85.84-4.24s18.54-1.1,22.59-2.24S317,198.61,317,198.61Z" style="fill:#fff;opacity:0.4"></path><path d="M276,222.56c-3.72.76-6.46,1.3-6.46,1.3l2.22-5.91A8.16,8.16,0,0,1,276,222.56Z" style="opacity:0.2"></path><path d="M265.33,197.37c-2,3.25-6.72,5.19-8.88,7.17s-1.16,8.81-15.24,6.78-19.35.8-19.35.8-.79-3.06,5.4-5.59c0,0-4.78.93-6.15,3.42,0,0-.31-7.69,6-10s5.41-12.11,9.89-17.25,16.08-7.89,22.81-3.09S267.94,193.15,265.33,197.37Z" style="fill:#000000"></path><path d="M221.11,273s34.79.23,42.05-3.36,6.37-39,6.37-39l-30.91,9.86S237.73,258.08,221.11,273Z" style="fill:#000000"></path><path d="M221.11,273s34.79.23,42.05-3.36,6.37-39,6.37-39l-30.91,9.86S237.73,258.08,221.11,273Z" style="fill:#fff;opacity:0.1"></path><path d="M244.22,213.33c3.45-.66,9.42-2,12.67-2s5.65,1.85,6.27,3.38-17.33,7.58-20.1,6.1S239.92,214.15,244.22,213.33Z" style="fill:#000000"></path><path d="M244.22,213.33c3.45-.66,9.42-2,12.67-2s5.65,1.85,6.27,3.38-17.33,7.58-20.1,6.1S239.92,214.15,244.22,213.33Z" style="fill:#fff;opacity:0.1"></path><path d="M195.17,412.05h1.43l.4-1.77,4.74,2.14h12s1.91-1.92-3.81-3.45a4.31,4.31,0,0,1-.81-.31c-3-1.43-7.39-6.26-7.39-6.26h-6.59a8.37,8.37,0,0,0-.54,1C193.89,404.8,192.64,407.85,195.17,412.05Z" style="fill:#000000"></path><path d="M194.61,403.35v0c.87-1,4.83,3.29,7.73,4.74,2.59,1.29,5.5,1.86,6.79.55-3-1.43-7.85-7.67-7.85-7.67H196S194.92,402.73,194.61,403.35Z" style="fill:#ffc2bc"></path><polyline points="200.72 403.94 211.75 380.36 202.21 377.75 195.58 401.01" style="fill:#ffc2bc"></polyline>
<path d="M204.7,399.11a26.88,26.88,0,0,1-4.91-.95,10.85,10.85,0,0,1-3.66-1.81c3.71-19.66,12.18-50.25,24.71-65.35,15.64-59.88,34.52-69.34,34.52-69.34l16.35,4.28s0,8.82-5.73,19.9c-6.73,13-19.81,32.71-29.13,49.09C226.07,353.88,214,376.25,204.7,399.11Z" style="fill:#0047ab"></path>

<path d="M251.68,310.29c-5.07,8.24-10.38,16.81-14.83,24.64-10.77,18.95-22.8,41.31-32.14,64.17a27.24,27.24,0,0,1-4.91-.94,11,11,0,0,1-3.67-1.81c3.72-19.67,12.18-50.25,24.71-65.36,4.77-18.24,9.83-31.81,14.58-41.85A123.87,123.87,0,0,0,251.68,310.29Z" style="fill:#fff;opacity:0.2"></path>
<path d="M270.21,401.05h1.44l.39-1.76,4.74,2.14h12S290.7,399.5,285,398a4.31,4.31,0,0,1-.81-.31c-3.05-1.43-7.39-6.26-7.39-6.26h-6.59a8.37,8.37,0,0,0-.54,1C268.93,393.8,267.69,396.84,270.21,401.05Z" style="fill:#000000"></path><path d="M269.65,392.35v0c.87-1,4.83,3.29,7.73,4.74,2.59,1.29,5.5,1.86,6.79.55-3.05-1.43-7.84-7.68-7.84-7.68H271S270,391.73,269.65,392.35Z" style="fill:#ffc2bc"></path><polyline points="276.13 392.97 283.11 367.89 273.28 366.9 270.58 390.94" style="fill:#000"></polyline><path d="M294.46,310.28C275.74,288.81,241.88,259,241.88,259h0a23.61,23.61,0,0,0,1.46,36.08,276.44,276.44,0,0,0,38.38,24.55c-8.16,24-10.9,49.89-11.19,66.57a13.7,13.7,0,0,0,4.15,1.31,13.15,13.15,0,0,0,5.26,0c4.73-19.55,12.17-44.82,16.88-63.45C298.45,317.88,298.17,313.88,294.46,310.28Z" style="fill:#0047ab"></path><path d="M294.46,310.28C275.74,288.81,241.88,259,241.88,259h0a23.61,23.61,0,0,0,1.46,36.08,276.44,276.44,0,0,0,38.38,24.55c-8.16,24-10.9,49.89-11.19,66.57a13.7,13.7,0,0,0,4.15,1.31,13.15,13.15,0,0,0,5.26,0c4.73-19.55,12.17-44.82,16.88-63.45C298.45,317.88,298.17,313.88,294.46,310.28Z" style="fill:#fff;opacity:0.2"></path><path d="M317.64,198.67l5-6.06,3.94,6.46s-5.63,4.93-7.49,3.5Z" style="fill:#eec1bb"></path><polygon points="329.72 192.39 331.3 197.59 326.62 199.07 322.68 192.61 329.72 192.39" style="fill:#eec1bb"></polygon><polygon points="314.87 198.72 317.75 205.43 320.42 203.91 317.78 197.61 314.87 198.72" style="fill:#000"></polygon><polygon points="314.87 198.72 317.75 205.43 320.42 203.91 317.78 197.61 314.87 198.72" style="fill:#fff;opacity:0.4"></polygon><path d="M244.15,215.34s13.38,5.57,11.86-2.44c0,0,8.81-.82,15.77-1.58,0,0,1.89,18-.65,46.62l1.81,13.84L262.48,275,259,264.9l-4.18,10.57L233,268.63l6.6-13.3s-1.06-20.73-6.6-31.94C233,223.39,233.92,219.39,244.15,215.34Z" style="fill:#7078ff"></path><path d="M245.25,200.11c1.22,4.52,2.72,12.79-.21,15.81,0,0-4.11,4,7.82,3.59,1,2.49,5.05,7,5.05,7s.78-7-.05-8.81c3.34-3.21-3.46-5.62-3.46-5.62s-.6-1.14,0-4.65Z" style="fill:#eec1bb"></path><path d="M249,203.11l5.42,4.35a13.29,13.29,0,0,0-.24,2.49c-1.95-.27-4.75-2.39-5.1-4.4A6.66,6.66,0,0,1,249,203.11Z" style="opacity:0.2"></path><path d="M241.4,191c1.37,7.3,1.79,10.4,5.95,13.9,6.26,5.26,14.86,2.48,15.68-4.95.74-6.7-1.62-17.5-9.14-19.91A9.5,9.5,0,0,0,241.4,191Z" style="fill:#eec1bb"></path><path d="M247.67,185.78c-4,5.19,4.24,11.16-4,10.82s-4.91-12,0-14.68S247.67,185.78,247.67,185.78Z" style="fill:#000000"></path><path d="M253,192.26c.09.62.48,1.09.87,1.06s.65-.55.56-1.17-.48-1.09-.88-1.06S252.86,191.64,253,192.26Z" style="fill:#000000"></path><path d="M260.4,191.82c.08.62.48,1.09.87,1.07s.65-.56.56-1.17-.48-1.1-.88-1.07S260.31,191.2,260.4,191.82Z" style="fill:#000000"></path><path d="M260.78,190.7l1.39-.54S261.59,191.38,260.78,190.7Z" style="fill:#000000"></path><path d="M258.47,193a18.22,18.22,0,0,0,2.72,3.77,2.5,2.5,0,0,1-2.1.58Z" style="fill:#d4827d"></path><path d="M256,199.87a5.72,5.72,0,0,0,1,0,.17.17,0,0,0,.15-.2.2.2,0,0,0-.2-.17,5.18,5.18,0,0,1-4.18-1.62.18.18,0,0,0-.25,0,.17.17,0,0,0,0,.25A5.48,5.48,0,0,0,256,199.87Z" style="fill:#000000"></path><path d="M250.87,188.94a.28.28,0,0,0,.25-.11,2.69,2.69,0,0,1,2.36-.9.33.33,0,0,0,.4-.29.38.38,0,0,0-.31-.42,3.3,3.3,0,0,0-3,1.11.37.37,0,0,0,.05.51A.35.35,0,0,0,250.87,188.94Z" style="fill:#000000"></path><path d="M262.07,188.28a.38.38,0,0,0,.25-.08.36.36,0,0,0,0-.51,3.79,3.79,0,0,0-3.08-1.38.33.33,0,0,0-.29.4.39.39,0,0,0,.42.32,3,3,0,0,1,2.43,1.12A.41.41,0,0,0,262.07,188.28Z" style="fill:#000000"></path><path d="M253.33,191.14l1.39-.54S254.14,191.82,253.33,191.14Z" style="fill:#000000"></path><path d="M250.49,181.73s-1.43,8.6-7.14,10-1.08-8.84-1.08-8.84,1.2-4.66,8.92-4.66,16.61,7.84,14.14,19.1a12.44,12.44,0,0,0-1.29-6.72C262.33,187.69,260.57,190.24,250.49,181.73Z" style="fill:#000000"></path><path d="M240.69,198.08a5.08,5.08,0,0,0,3.1,2.71c1.69.45,2.43-1.49,1.87-3.43-.51-1.75-2-4.1-3.67-3.67S239.83,196.37,240.69,198.08Z" style="fill:#eec1bb"></path><path d="M242.58,215.13s2.36,27.29-7.34,45.09S221,280.7,221,280.7L217,273s17.94-20.15,18.5-22.78-3.28-27.67-3.28-27.67A48.09,48.09,0,0,1,242.58,215.13Z" style="fill:#000000"></path><path d="M235.24,260.22C225.55,278,221,280.7,221,280.7L217,273s17.94-20.15,18.5-22.78a40.09,40.09,0,0,0-.46-7.06c-.41-3.66-1-8.12-1.55-11.95-.68-4.83-1.27-8.66-1.27-8.66a48.09,48.09,0,0,1,10.33-7.43S244.94,242.42,235.24,260.22Z" style="fill:#fff;opacity:0.4"></path><path d="M244.22,213.33s-2.91.36-3.57,1.79-6.73,9-6.73,9l6.36-1.56-3.74,3.32a101.1,101.1,0,0,1,4,19.37s5.67-15.25,2-30.12Z" style="fill:#000000"></path><path d="M244.22,213.33s-2.91.36-3.57,1.79-6.73,9-6.73,9l6.36-1.56-3.74,3.32a101.1,101.1,0,0,1,4,19.37s5.67-15.25,2-30.12Z" style="fill:#fff;opacity:0.25"></path><path d="M260.3,211.9s10,3.66,11.41,38.63c0,0,2.25-26.7.47-39.76Z" style="fill:#000000"></path><path d="M260.3,211.9s10,3.66,11.41,38.63c0,0,2.25-26.7.47-39.76Z" style="fill:#fff;opacity:0.4"></path><path d="M256.45,211.32l3.56-.55c1.45-.23,12.69,6.1,12.69,6.1L267.27,218l4,1.44s1.39,13-.36,21.12c0,0-3.23-19.35-9.92-27.18A5.67,5.67,0,0,0,256.45,211.32Z" style="fill:#000"></path>
<path d="M256.45,211.32l3.56-.55c1.45-.23,12.69,6.1,12.69,6.1L267.27,218l4,1.44s1.39,13-.36,21.12c0,0-3.23-19.35-9.92-27.18A5.67,5.67,0,0,0,256.45,211.32Z" style="fill:#fff;opacity:0.25"></path><path d="M254.4,212.12s3.93,2.74,3.46,5.62l7.89.21S260.6,212.6,254.4,212.12Z" style="fill:#FF40D2"></path><path d="M243.47,222.56l9.39-3.05s-5-4-6.52-6.18l-3.1,2.33h0C243.16,215.84,242.24,218.12,243.47,222.56Z" style="fill:#FF40D2"></path><path d="M254.4,212.12s3.93,2.74,3.46,5.62l7.89.21S260.6,212.6,254.4,212.12Z" style="fill:#fff;opacity:0.4"></path><path d="M243.47,222.56l9.39-3.05s-5-4-6.52-6.18l-3.1,2.33h0C243.16,215.84,242.24,218.12,243.47,222.56Z" style="fill:#fff;opacity:0.4"></path><path d="M197.73,243.53l-7.13-3.36-.84,7.52s7.19,2.09,8.27,0Z" style="fill:#eec1bb"></path><polygon points="184.13 242.95 184.9 248.33 189.76 247.69 190.6 240.17 184.13 242.95" style="fill:#eec1bb"></polygon><path d="M195.81,173.57s-17.95-7.46-34.33,4.31c-9.52,6.83-15.57,22.57-36.87,16.45,0,0,19.4,21.59,32.11,18.89s10.16-9.86,35.9-2.83Z" style="fill:#f28cd9"></path><rect x="186.83" y="171.6" width="2.39" height="243.49" transform="translate(19.06 -11.38) rotate(3.65)" style="fill:#000000"></rect><path d="M197.4,171.81a1.64,1.64,0,1,1-1.17-2A1.65,1.65,0,0,1,197.4,171.81Z" style="fill:#000000"></path><path d="M223.31,197.5h0a.25.25,0,0,1-.24-.26.27.27,0,0,1,.25-.24c.28,0,7,0,9.4-8.12a13.48,13.48,0,0,1,10.43-9.57.25.25,0,0,1,.07.5,13,13,0,0,0-10,9.21C230.67,197.41,223.55,197.5,223.31,197.5Z" style="fill:#000000"></path>

<path d="M263.79,201.11a.25.25,0,0,1-.13-.46c.28-.18,6.73-4.41,1.86-14.24-4.5-9.09-15.38-7.9-15.49-7.89a.25.25,0,0,1-.28-.22A.26.26,0,0,1,250,178c.11,0,11.34-1.24,16,8.17,5.08,10.24-2,14.84-2.05,14.88A.2.2,0,0,1,263.79,201.11Z" style="fill:#000000"></path>
<path d="M235.07,243.17c-.41-3.66-1-8.12-1.55-11.95a3.43,3.43,0,0,1,1.3-.95S238,237.71,235.07,243.17Z" style="opacity:0.2"></path>

<path d="M232.25,222.56s-11.77,18.4-14.41,19.69S199,243,199,243L198,249.12s18.47,3.18,23.48,1.41,13.33-13.05,13.33-13.05S236,226.8,232.25,222.56Z" style="fill:#000000"></path>

<path d="M232.25,222.56s-11.77,18.4-14.41,19.69S199,243,199,243L198,249.12s18.47,3.18,23.48,1.41,13.33-13.05,13.33-13.05S236,226.8,232.25,222.56Z" style="fill:#fff;opacity:0.4"></path>

<polygon points="199.06 249.89 200 242.65 196.93 242.59 195.98 249.35 199.06 249.89" style="fill:#FF40D2"></polygon><polygon points="199.06 249.89 200 242.65 196.93 242.59 195.98 249.35 199.06 249.89" style="fill:#fff;opacity:0.4"></polygon></g></svg>
