<svg xmlns="http://www.w3.org/2000/svg" viewBox="0 0 500 500"><g id="freepik--background-simple--inject-3"><path d="M330.49,47.67S250.25,17.78,172.41,62.78,56.15,198.56,23.08,271.25s-12.58,147.33,47.69,182,100.36-14.81,184.29-16.18,106.67,11.12,175.74-36.24,80.26-161.12,24.25-246.11S330.49,47.67,330.49,47.67Z" style="fill:#FF5DD9"></path><path d="M330.49,47.67S250.25,17.78,172.41,62.78,56.15,198.56,23.08,271.25s-12.58,147.33,47.69,182,100.36-14.81,184.29-16.18,106.67,11.12,175.74-36.24,80.26-161.12,24.25-246.11S330.49,47.67,330.49,47.67Z" style="fill:#fff;opacity:0.7000000000000001"></path></g><g id="freepik--Clock--inject-3"><g style="opacity:0.30000000000000004"><circle cx="70.66" cy="104.83" r="36.28" transform="translate(-53.43 80.67) rotate(-45)" style="fill:none;stroke:#000;stroke-miterlimit:10"></circle><circle cx="70.66" cy="104.83" r="33.81" style="fill:none;stroke:#000;stroke-miterlimit:10"></circle><polyline points="77.1 114.98 70.66 104.83 42.95 104.83" style="fill:none;stroke:#000;stroke-miterlimit:10"></polyline></g></g><g id="freepik--Window--inject-3"><g style="opacity:0.30000000000000004"><rect x="339.94" y="69.08" width="36.85" height="75" style="fill:none;stroke:#000;stroke-miterlimit:10"></rect><rect x="381.32" y="69.08" width="36.85" height="75" style="fill:none;stroke:#000;stroke-miterlimit:10"></rect><rect x="422.7" y="69.08" width="36.85" height="75" style="fill:none;stroke:#000;stroke-miterlimit:10"></rect><rect x="339.94" y="147.95" width="36.85" height="75" style="fill:none;stroke:#000;stroke-miterlimit:10"></rect><rect x="381.32" y="147.95" width="36.85" height="75" style="fill:none;stroke:#000;stroke-miterlimit:10"></rect><rect x="422.7" y="147.95" width="36.85" height="75" style="fill:none;stroke:#000;stroke-miterlimit:10"></rect><rect x="339.94" y="226.83" width="36.85" height="75" style="fill:none;stroke:#000;stroke-miterlimit:10"></rect><rect x="381.32" y="226.83" width="36.85" height="75" style="fill:none;stroke:#000;stroke-miterlimit:10"></rect><rect x="422.7" y="226.83" width="36.85" height="75" style="fill:none;stroke:#000;stroke-miterlimit:10"></rect><rect x="339.94" y="305.71" width="36.85" height="75" style="fill:none;stroke:#000;stroke-miterlimit:10"></rect><rect x="381.32" y="305.71" width="36.85" height="75" style="fill:none;stroke:#000;stroke-miterlimit:10"></rect><rect x="422.7" y="305.71" width="36.85" height="75" style="fill:none;stroke:#000;stroke-miterlimit:10"></rect></g></g><g id="freepik--Floor--inject-3"><line x1="25.94" y1="388.51" x2="492.71" y2="388.51" style="fill:none;stroke:#263238;stroke-miterlimit:10"></line></g><g id="freepik--Plant--inject-3"><path d="M55.58,288.17h0a.08.08,0,0,1,.05-.11.1.1,0,0,1,.11.05,113.27,113.27,0,0,1,6,18.72A174.41,174.41,0,0,1,65,326.23l.46,4.9c.08.82.16,1.64.22,2.46l.14,2.46c.07,1.64.17,3.28.21,4.93l0,4.93,0,2.46c0,.82-.1,1.64-.16,2.46-.12,1.64-.22,3.28-.37,4.91-.31,3.27-.81,6.52-1.31,9.76a.09.09,0,0,1-.17,0h0c0-1.64.08-3.28.11-4.91s.19-3.26.17-4.9,0-3.26,0-4.89l0-2.44,0-2.45,0-4.88-.13-4.89-.05-2.44c0-.81-.09-1.62-.14-2.44l-.3-4.88A173.48,173.48,0,0,0,60.87,307,113,113,0,0,0,55.58,288.17Z" style="fill:#263238"></path><path d="M54.88,313.71a.09.09,0,0,1,.17,0,117.58,117.58,0,0,1,3.47,12.41,116.33,116.33,0,0,1,2.06,12.75c.43,4.27.91,8.55,1,12.85a108.82,108.82,0,0,1-.46,12.89.11.11,0,0,1-.08.08.08.08,0,0,1-.09-.08c-.5-4.28-.8-8.55-1.1-12.82s-.34-8.54-.62-12.81a115.77,115.77,0,0,0-1.52-12.7A117.18,117.18,0,0,0,54.88,313.71Z" style="fill:#263238"></path><path d="M40.72,322.7a.1.1,0,0,1,.12,0,43.33,43.33,0,0,1,9.47,8.26,37.74,37.74,0,0,1,3.7,5.15l.76,1.43.6,1.5a15.82,15.82,0,0,1,.52,1.51c.15.51.32,1,.46,1.53a61,61,0,0,1,2,12.49,72.44,72.44,0,0,1-.47,12.58.08.08,0,0,1-.08.07.09.09,0,0,1-.1-.08l-1.07-12.45A111.39,111.39,0,0,0,55,342.38c-.11-.5-.26-1-.39-1.49a13,13,0,0,0-.43-1.47L53.68,338,53,336.63a37.59,37.59,0,0,0-3.39-5.16,43.15,43.15,0,0,0-8.89-8.65h0A.11.11,0,0,1,40.72,322.7Z" style="fill:#263238"></path><path d="M47.57,338.7a13.89,13.89,0,0,1,4.31,5.18,30.56,30.56,0,0,1,2.41,6.34,15.77,15.77,0,0,1,.42,1.64l.39,1.66a27.3,27.3,0,0,1,.42,3.36c0,1.13,0,2.26,0,3.39a29.42,29.42,0,0,1-.44,3.36.1.1,0,0,1-.07.07.08.08,0,0,1-.1-.07,29.93,29.93,0,0,1-.6-3.31c-.17-1.1-.34-2.19-.48-3.28s-.3-2.16-.38-3.26-.24-2.18-.47-3.25a29.63,29.63,0,0,0-1.85-6.28,13.9,13.9,0,0,0-3.61-5.4h0a.08.08,0,0,1,0-.11A.08.08,0,0,1,47.57,338.7Z" style="fill:#263238"></path><path d="M67.43,351.18c.47-5.53,1.38-11,2.24-16.48s1.82-10.92,2.82-16.37,2.12-10.87,3.3-16.27a.08.08,0,1,1,.16,0q-1.41,8.18-2.61,16.39c-.83,5.46-1.61,10.94-2.3,16.42s-1.2,11-1.89,16.46l-2,16.46a.08.08,0,0,1-.08.07.08.08,0,0,1-.09-.08c-.07-1.39-.07-2.77-.1-4.16s0-2.78.08-4.17C67,356.71,67.23,353.94,67.43,351.18Z" style="fill:#263238"></path><path d="M70.75,351.1c.3-2.19.7-4.37,1.12-6.54l.77-3.23c.26-1.07.5-2.15.81-3.22a92.83,92.83,0,0,1,4.23-12.57l.66-1.52.74-1.49c.47-1,1-2,1.57-2.92a24.83,24.83,0,0,1,4-5.29.08.08,0,0,1,.12.12h0a24.6,24.6,0,0,0-3.65,5.41c-.48,1-1,1.95-1.4,3l-.65,1.5-.57,1.54a91.44,91.44,0,0,0-3.69,12.57c-.5,2.13-.83,4.3-1.25,6.44L73,348.12c-.19,1.08-.42,2.15-.57,3.23-.35,2.17-.75,4.32-1.12,6.48s-.73,4.34-1.19,6.51a.1.1,0,0,1-.09.07.09.09,0,0,1-.08-.09q0-3.31.15-6.63C70.26,355.49,70.52,353.3,70.75,351.1Z" style="fill:#263238"></path><path d="M75.33,351.38c1-2.9,2.2-5.74,3.5-8.53a75,75,0,0,1,4.4-8.07.09.09,0,0,1,.15.09,75,75,0,0,0-3.76,8.33c-1.12,2.82-2.14,5.69-3,8.61s-1.49,5.88-2.26,8.8-1.47,5.88-2.37,8.84a.1.1,0,0,1-.09.06.08.08,0,0,1-.08-.08,43,43,0,0,1,.86-9.2A56.92,56.92,0,0,1,75.33,351.38Z" style="fill:#263238"></path><path d="M75.52,361a19.43,19.43,0,0,1,2.43-5.1,20.91,20.91,0,0,1,3.54-4.4,16.6,16.6,0,0,1,2.25-1.7,9.25,9.25,0,0,1,2.56-1.16.09.09,0,0,1,.1.05.08.08,0,0,1,0,.11h0a12.51,12.51,0,0,0-4.24,3.29,20.17,20.17,0,0,0-3,4.47c-.84,1.59-1.27,3.35-2,5-.32.84-.64,1.69-1,2.52A22.77,22.77,0,0,1,75,366.67h0a.08.08,0,0,1-.07.05.09.09,0,0,1-.09-.09,20.45,20.45,0,0,1,.1-2.82C75.1,362.88,75.29,362,75.52,361Z" style="fill:#263238"></path><path d="M75.17,310a15.73,15.73,0,0,0,11.15-11.85c2.09-9.75-4.64-5.57,1.4-20.9S92.36,258.4,90.27,254s-3.25-3-5.11,2.78S76.57,271.64,74,288.6,75.17,310,75.17,310Z" style="fill:#FF5DD9"></path><path d="M57.29,293.48s6-2.09,6.27-13.48-4.42-9.06-5.11-23.23-1.63-24.15-4.18-24.39-9.3,7-11.62,22.77,3,26.25,7.67,30.89S57.29,293.48,57.29,293.48Z" style="fill:#FF5DD9"></path><path d="M78.43,323.68s1.39-8.37,4.18-12.32,8.82-7.43,12.77-15.1,8.37-11.38,8.13-.46S98.4,312.29,92.36,316,78.43,323.68,78.43,323.68Z" style="fill:#FF5DD9"></path><path d="M81,338.08s5.58-10.69,13.71-18.59,14.63-11.84,12.31-7.89-5.11,3.71-9.06,10.68-2.79,12.08-8.36,16S81,338.08,81,338.08Z" style="fill:#FF5DD9"></path><path d="M81.68,351.78c.23-.69.46-5.8,8.36-10s15.33-2.56,14.4-.47-5.8,5.58-10.68,7.67S81.68,351.78,81.68,351.78Z" style="fill:#FF5DD9"></path><path d="M57.75,324.14s3.49-4.41,1.63-13.7-6-7-10.69-11.85S45,293,40.33,287.9s-8.83-7.9-10.69-5.81.93,8.6,3.72,12.32,7.2,5.57,9.29,10.22,1.16,12.08,6.51,15.56S57.75,324.14,57.75,324.14Z" style="fill:#FF5DD9"></path><path d="M46.14,326.7s-8.37-9.53-14.41-16.5-8.36-12.31-8.59-7.66-2.09,8.36,2.79,14.4S46.14,326.7,46.14,326.7Z" style="fill:#FF5DD9"></path><path d="M50.55,342s.23-3.72-13-12.31S18.72,319.49,20.12,323s7.2,7,13.47,13.24S50.55,342,50.55,342Z" style="fill:#FF5DD9"></path><path d="M74.62,309s3.11-16.66,6.36-28.51,5.34-19.05,5.34-19.05" style="fill:none;stroke:#263238;stroke-linecap:round;stroke-linejoin:round"></path><path d="M57.82,293.65s-5.64-18.06-7.5-29,.23-19.05,1.16-23.92" style="fill:none;stroke:#263238;stroke-linecap:round;stroke-linejoin:round"></path><path d="M79.16,323.33a87.59,87.59,0,0,1,8.56-12.2c5.11-6,9.06-9.29,11.38-15.1" style="fill:none;stroke:#263238;stroke-linecap:round;stroke-linejoin:round"></path><path d="M57.75,324.14s-1.86-11.15-6.27-17-13.24-14.86-16.73-20.67" style="fill:none;stroke:#263238;stroke-linecap:round;stroke-linejoin:round"></path><path d="M82.22,351.53s7.82-5.09,13.4-7.88" style="fill:none;stroke:#263238;stroke-linecap:round;stroke-linejoin:round"></path><path d="M57.73,413.08a7,7,0,0,1-6.94-6.38c-1.16-13.8-3.58-44.8-2.33-46.32,5.12-6.24,27.17-6.24,32.29,0,1.25,1.52-1.17,32.52-2.33,46.32a7,7,0,0,1-7,6.38Z" style="fill:#263238;stroke:#263238;stroke-linecap:round;stroke-linejoin:round"></path></g><g id="freepik--Chair--inject-3"><rect x="181.37" y="295.19" width="5.42" height="21.68" style="fill:#263238;stroke:#263238;stroke-linecap:round;stroke-linejoin:round"></rect><rect x="265.04" y="295.19" width="5.42" height="21.68" style="fill:#263238;stroke:#263238;stroke-linecap:round;stroke-linejoin:round"></rect><path d="M193.23,224.37h63.5a7.21,7.21,0,0,1,7.21,7.21v94.62a0,0,0,0,1,0,0H186a0,0,0,0,1,0,0V231.58A7.21,7.21,0,0,1,193.23,224.37Z" style="fill:#ababab;stroke:#263238;stroke-linecap:round;stroke-linejoin:round"></path><circle cx="189.5" cy="409.01" r="4.06" style="fill:#fff;stroke:#263238;stroke-linecap:round;stroke-linejoin:round"></circle><path d="M229.13,409a4.07,4.07,0,1,0-4.06,4.07A4.06,4.06,0,0,0,229.13,409Z" style="fill:#fff;stroke:#263238;stroke-linecap:round;stroke-linejoin:round"></path><path d="M264.7,409a4.07,4.07,0,1,0-4.07,4.07A4.07,4.07,0,0,0,264.7,409Z" style="fill:#fff;stroke:#263238;stroke-linecap:round;stroke-linejoin:round"></path><polygon points="228.74 388.6 228.74 321.62 221.6 321.62 221.6 388.17 221.34 388.35 184.42 403.25 184.42 407.66 190.18 407.66 190.18 404.61 222.17 399.9 222.76 407.66 227.03 407.66 227.62 399.95 259.28 404.61 259.28 407.66 265.04 407.66 265.04 403.25 228.74 388.6" style="fill:#263238;stroke:#263238;stroke-linecap:round;stroke-linejoin:round"></polygon><rect x="213.65" y="329.03" width="22.67" height="8.03" style="fill:#263238;stroke:#263238;stroke-linecap:round;stroke-linejoin:round"></rect><rect x="179.65" y="311.56" width="90.67" height="17.94" rx="2.74" style="fill:#ababab;stroke:#263238;stroke-linecap:round;stroke-linejoin:round"></rect><rect x="174.93" y="282.65" width="11.18" height="16.6" rx="2.27" style="fill:#ababab;stroke:#263238;stroke-linecap:round;stroke-linejoin:round"></rect><rect x="263.51" y="282.65" width="11.18" height="16.6" rx="2.27" style="fill:#ababab;stroke:#263238;stroke-linecap:round;stroke-linejoin:round"></rect></g><g id="freepik--Table--inject-3"><rect x="102.86" y="285.7" width="240.5" height="23.4" transform="translate(446.21 594.81) rotate(180)" style="fill:#fff;stroke:#263238;stroke-linecap:round;stroke-linejoin:round"></rect><rect x="102.86" y="285.7" width="240.5" height="6.22" transform="translate(446.21 577.63) rotate(180)" style="fill:#263238;stroke:#263238;stroke-linecap:round;stroke-linejoin:round"></rect><polygon points="340.82 413.08 344.23 413.08 345.36 285.37 339.68 285.37 340.82 413.08" style="fill:#fff;stroke:#263238;stroke-linecap:round;stroke-linejoin:round"></polygon><polygon points="101.65 413.08 105.06 413.08 106.2 285.37 100.52 285.37 101.65 413.08" style="fill:#fff;stroke:#263238;stroke-linecap:round;stroke-linejoin:round"></polygon><rect x="97.35" y="282.29" width="251.46" height="5.28" transform="translate(446.16 569.87) rotate(180)" style="fill:#fff;stroke:#263238;stroke-linecap:round;stroke-linejoin:round"></rect><rect x="192.84" y="279.49" width="75.66" height="3.12" transform="translate(461.34 562.1) rotate(180)" style="fill:#fff;stroke:#263238;stroke-linecap:round;stroke-linejoin:round"></rect><rect x="251.5" y="206.98" width="91.03" height="61.34" transform="translate(594.02 475.29) rotate(180)" style="fill:#263238;stroke:#263238;stroke-linecap:round;stroke-linejoin:round"></rect><rect x="271.15" y="279.16" width="36.84" height="3.46" transform="translate(579.14 561.77) rotate(180)" style="fill:#ababab;stroke:#263238;stroke-linecap:round;stroke-linejoin:round"></rect><rect x="286.03" y="242.9" width="21.96" height="39.71" transform="translate(594.02 525.51) rotate(180)" style="fill:#ababab;stroke:#263238;stroke-linecap:round;stroke-linejoin:round"></rect></g><g id="freepik--Lines--inject-3"><line x1="217.69" y1="74.02" x2="227.95" y2="76.58" style="fill:none;stroke:#263238;stroke-miterlimit:10"></line><line x1="234.36" y1="53.5" x2="237.35" y2="60.34" style="fill:none;stroke:#263238;stroke-miterlimit:10"></line><line x1="295.07" y1="74.02" x2="284.81" y2="76.58" style="fill:none;stroke:#263238;stroke-miterlimit:10"></line><line x1="278.39" y1="53.5" x2="275.4" y2="60.34" style="fill:none;stroke:#263238;stroke-miterlimit:10"></line><line x1="257.02" y1="44.52" x2="257.02" y2="53.07" style="fill:none;stroke:#263238;stroke-miterlimit:10"></line></g><g id="freepik--character-3--inject-3"><path d="M266.08,93.35,264,80.41s-1-8.76-1-11.64-1.05-3.14-1.44-2.61l-1.18.65s-.39-3.4-1.44-2.35a4.45,4.45,0,0,0-1.17,2.48,17.71,17.71,0,0,0-1.7,4.71,43.44,43.44,0,0,0-.52,4.54l-.66-.88s-.39-4.32-.52-5.23-1.57.13-1.7,3.4c-.1,2.55,1.39,9.08,2,11.83-.35,2.94-.66,6.6-.22,8.3a17.06,17.06,0,0,0,2.88,5.76c.52.78,3.66,9.28,3.66,9.28l9.41-4.18Z" style="fill:#fff;stroke:#263238;stroke-miterlimit:10"></path><path d="M262.55,88.12s-2.75-5.1-3.27-6-3.66-4.71-4.45-6.8-2.61.78-1.83,3,3.92,6.27,3.92,6.27a10.29,10.29,0,0,0,.4,6.54,9.71,9.71,0,0,0,4.31,4.31" style="fill:#fff;stroke:#263238;stroke-miterlimit:10"></path><path d="M260.32,66.81s-.91,10.2-.52,14.12" style="fill:none;stroke:#263238;stroke-miterlimit:10"></path><path d="M257.71,66.94s-.92,8.11-.39,11.51" style="fill:none;stroke:#263238;stroke-miterlimit:10"></path><path d="M335.3,160.41s-16.11-5.61-17.19-5.61-12.36-.81-12.36-.81l-13.34-7-21.5-43.65-12.67,6.15s4.52,23.35,8.14,36.2S274.13,166,274.13,166l28.78,21.41,1.44,2Z" style="fill:#FF5DD9;stroke:#263238;stroke-miterlimit:10"></path><path d="M289.69,213.26s-6,26.06-6,40,.36,17.55,1.27,18.1,11.22,2.35,12.12,2.17,3.62-1.09,3.62-1.09S314,209.82,315.39,202s3.44-24.8,3.44-24.8-15.2,13-19.36,17.56-3.8,4.71-5.61,8.14A98.93,98.93,0,0,0,289.69,213.26Z" style="fill:#FF5DD9;stroke:#263238;stroke-miterlimit:10"></path><path d="M296.59,412.33s-4.85,8-5.7,8.86-8.23,5.27-10.34,5.91-4.43,1.9-4.43,4,7,3.16,10.55,3.16,14.14-.63,15.41-.63a34.18,34.18,0,0,1,4.64,0c1,.21,6.33,1.05,7.81.42s2.74-5.91,2.32-8.23-1.69-7.6-1.69-7.6Z" style="fill:#fff;stroke:#263238;stroke-miterlimit:10"></path><path d="M361.16,420.34l-3.58,5.91a76.88,76.88,0,0,1-7.39,5.91c-6.47,4,2.75,6.41,7,6.12,3-.2,8.44-.21,10.13-1a133.39,133.39,0,0,0,11.4-7.6c2.74-2.11,2.95-4.43,2.53-7.18a35.45,35.45,0,0,0-2.32-7s-11.18-3.59-14.35-1.05A8.93,8.93,0,0,0,361.16,420.34Z" style="fill:#fff;stroke:#263238;stroke-miterlimit:10"></path><path d="M299.28,266.33l-4.79,25.16s-8.38,52.45-8.14,54.37,10.31,56.1,10.55,58.25-2.16,4.31-2.16,4.31l.48,5.27s6,4.08,10.06,5a67.68,67.68,0,0,0,10.3,1.2s2.16-4.55,2.16-5.27-1.44-5.51-1.44-6.23-3.84-64-3.84-64l9.34-36.17s12.7,38.33,13.89,41S360,410.39,360,410.39s-2.15,2.88-1.43,5,1.67,6.23,1.67,6.23,5.27-6,7.91-4.07a7.75,7.75,0,0,1,3.11,4.07l8.38-3.35s.72-3.36.24-5-1.67.48-1.67-5.75-8.25-43.46-9.93-49.21-8.62-16.52-8.62-16.52l-3.12-58V270.41Z" style="fill:#263238;stroke:#263238;stroke-miterlimit:10"></path><path d="M339.57,163.33s-6.18-2-8.69-.83S307.62,185.62,307.34,187s-10.56,70.28-12.23,75.59,7.55,12,7.55,12l5.59,2.52,4.75-5.6-.28,6.72s14.55.28,19-.28,21.81-5,21.81-5,3.64-60.4,3.92-61.52S360.55,172,360.55,172l-5.32-3.35Z" style="fill:#fff;stroke:#263238;stroke-miterlimit:10"></path><path d="M339.49,180.06l3.91,7.82s11.36-12.29,12.66-15.27,2.42-3.17,1.68-5a13.81,13.81,0,0,0-2.61-3.73s-17.32-.55-19.55.56-8.38,15.09-8.75,16l-.38.93,11.74-2.05Z" style="fill:#fff;stroke:#263238;stroke-miterlimit:10"></path><path d="M334.22,164.94s-38.37,35.65-40.36,38-4.17,10.32-4.17,10.32,3.44-15.2,4.71-17.55,28.41-30.23,28.41-30.23l7.24-5.07,7.42,1.81Z" style="fill:#FF5DD9;stroke:#263238;stroke-miterlimit:10"></path><path d="M338.37,116.93s-7.63,8-7.45,9.49a14.3,14.3,0,0,1-.18,3.54s-8,6.52-8.76,6.71-.74,1.49-.18,2.6,1.49,1.31,1.86,2.24.19,3.54-1.3,8.75-2.24,6-.75,6.89,12.29,4.66,12.29,4.66.37,15.64,1.12,17.87,4.47.38,4.47.38l15.64-14.9v-2.61l12.29-14.71s3.35-12.11-.37-17.88-23.28-14-23.84-14.15A5.29,5.29,0,0,0,338.37,116.93Z" style="fill:#fff;stroke:#263238;stroke-miterlimit:10"></path><path d="M352,112.27s3.16-1.86,1.11-2.79a6.83,6.83,0,0,0-4.84,0c-.56.18.56-5.59-2.61-3.91s-7.26,5.77-8.19,8.56,1.86,8.2,4.28,8.57a68.07,68.07,0,0,1,7.82,2.23,2.54,2.54,0,0,1,.56,3.17c-.93,2.05-6.33,6.14-5.58,7.26s2.6,3.73,2.6,3.73-1.86,3.35-1.49,4.28a2.66,2.66,0,0,0,1.49,1.3s3.36-2,6.15-1.3,1.68,5.4.56,7.45-2.61,4.47-2.61,4.47,3.17,7.26,3.91,7.26,9.87-9.12,13.78-13.22,5.59-11.17,4.66-17.13-10.8-14-14-15.83S352,112.27,352,112.27Z" style="fill:#263238;stroke:#263238;stroke-miterlimit:10"></path><path d="M325.71,133.13c-1.68-1.12-.37-6.33,1.12-6.89s3.91,3.72,3.91,3.72,8,6.15,8.19,7.26-4.28,4.47-6.7,4.66-3.36.19-3.36-3.35a13.59,13.59,0,0,1,1.31-6" style="fill:none;stroke:#263238;stroke-miterlimit:10"></path><line x1="338.93" y1="137.22" x2="348.99" y2="144.11" style="fill:none;stroke:#263238;stroke-miterlimit:10"></line><path d="M334.09,130a6.79,6.79,0,0,1,5.21,3.73" style="fill:none;stroke:#263238;stroke-miterlimit:10"></path><path d="M325.34,146.16a10.25,10.25,0,0,0,7.26,0" style="fill:none;stroke:#263238;stroke-miterlimit:10"></path><path d="M351.22,155.29s-3.91.93-5.77,0" style="fill:none;stroke:#263238;stroke-miterlimit:10"></path><polygon points="333.9 161.81 340.98 161.43 334.09 167.95 333.9 161.81" style="fill:#263238;stroke:#263238;stroke-miterlimit:10"></polygon><path d="M357.74,167.58S354,174,350.34,186.9s-7.5,51.89-7.5,56.12,9.8,55,10.57,56.88S359,302,359,302s14.22-9.6,15-12.29-9-47.86-9-47.86,17.88-58.42,16.72-59.19S357.74,167.58,357.74,167.58Z" style="fill:#FF5DD9;stroke:#263238;stroke-miterlimit:10"></path><path d="M364.37,174s-11.92,47.66-14.8,55.92A47.82,47.82,0,0,1,342.84,243" style="fill:none;stroke:#263238;stroke-miterlimit:10"></path><path d="M360.39,293.78s-1.8,2.77-2.76,3.87-3.6,2.36-2.36,3.18,4.57-.69,5.4-1.93Z" style="fill:#fff;stroke:#263238;stroke-miterlimit:10"></path><path d="M367.93,283.05s-7.26,7-7.68,7.69-.83,6.5-.83,8.16a2.85,2.85,0,0,0,1.66,2.76,9.37,9.37,0,0,0,1.66.14l1.8-.27a11.61,11.61,0,0,1,3.32.27c1.66.42,5,.42,5.81-.41a11.37,11.37,0,0,0,1.66-2.91,6.12,6.12,0,0,0,1.24-2.76c.28-1.66,1.94-10,1.94-10S366.75,281.72,367.93,283.05Z" style="fill:#fff;stroke:#263238;stroke-miterlimit:10"></path><line x1="362.74" y1="301.8" x2="363.99" y2="294.06" style="fill:none;stroke:#263238;stroke-miterlimit:10"></line><line x1="366.34" y1="301.39" x2="367.72" y2="294.75" style="fill:none;stroke:#263238;stroke-miterlimit:10"></line><line x1="370.49" y1="301.66" x2="371.73" y2="295.44" style="fill:none;stroke:#263238;stroke-miterlimit:10"></line><path d="M381.66,182.67s19.59,43.33,22.28,50.06.58,9.17,0,10.89-22.75,43.66-22.75,43.66l-13.26-4.23,13.66-44L371.48,220Z" style="fill:#FF5DD9;stroke:#263238;stroke-miterlimit:10"></path></g><g id="freepik--character-2--inject-3"><path d="M275.29,107.09a40.67,40.67,0,0,1,1.08-8.34c.94-3.09.27-4.44-.41-4.17s-1.47.41-1.88,2.83a28.9,28.9,0,0,0-.54,5.11C273.54,104,275.29,107.09,275.29,107.09Z" style="fill:#fff;stroke:#263238;stroke-miterlimit:10"></path><path d="M260.76,91.81c.24-.42,1.77,1.22,2.83,2.2-.42-.86-.53-.91-1.21-2.39a4.73,4.73,0,0,1-.54-3.22c.36-1.4,3.24,1.71,4.07,3.33-.42-1.3-1.31-4-1.51-4.81-.27-1.08-.13-2.56.67-3.09s2,2.28,2,2.28a5.75,5.75,0,0,1,2.42,2.15l4.57,9.15.41,6.45,4.16,15.87,9.69,13.45-10.68,5.18-6.27-14.86a16.12,16.12,0,0,1-2.82-3.23c-.88-1.37-1.69-6.45-2.17-10.56a18.83,18.83,0,0,1-.82-3.15c-.4-2.28-1.11-7.65-1.11-7.65s-2.05-2.45-3.15-4.1A3.64,3.64,0,0,1,260.76,91.81Z" style="fill:#fff;stroke:#263238;stroke-miterlimit:10"></path><path d="M266.15,92.43a39.91,39.91,0,0,1,2.5,4.51,26.49,26.49,0,0,1,1,3.31" style="fill:none;stroke:#263238;stroke-miterlimit:10"></path><path d="M267.09,86.11s3.5,8.2,4.3,9.41A11,11,0,0,1,272.6,100" style="fill:none;stroke:#263238;stroke-miterlimit:10"></path><path d="M263.59,94a23.89,23.89,0,0,1,2.93,3.16c.32.71,1.34,4.58,1.34,4.58" style="fill:none;stroke:#263238;stroke-miterlimit:10"></path><path d="M348.31,367.33s1.37,18.92-.51,28.12-8.69,22.84-9.37,24.71S332,443,332.12,443.85s4.26,8.18,3.75,11.75-1.36,4.61-2.89,4.95-8.87.17-13.81,4.26-12.27,3.23-14.82,3.06-9.2-.17-9.55-1.53,3.58-4.43,5.63-5.28,7.5-5.46,9-7,7.33-9,8.52-11.93,4.6-47.2,5.62-54a118.26,118.26,0,0,0,1.54-18.74,16.67,16.67,0,0,1,.85-6.65Z" style="fill:#fff;stroke:#263238;stroke-miterlimit:10"></path><path d="M300.43,461.06a19.13,19.13,0,0,0,3.3-2.15,15.31,15.31,0,0,0,4.37,1.47c1.53,0,12.78-7.5,16.7-9.72,3.17-1.79,7.69-2.24,9.29-2.35,1,2.47,2.05,5.4,1.78,7.29-.51,3.58-1.36,4.61-2.89,4.95s-8.87.17-13.81,4.26-12.27,3.23-14.82,3.06-9.2-.17-9.55-1.53S298.38,461.91,300.43,461.06Z" style="fill:#FF5DD9;stroke:#263238;stroke-miterlimit:10"></path><path d="M404.09,362.31s6,10.41,8.62,20.63,2.2,53.89,2.6,54.69,4,9.22,5.81,12.82,6.21,9,6.21,10.62-3.2,1.6-3.81,1.6h-11s-3-1-3.61-2.2-1-6.41-2.4-8-4.81-5.81-5-8,1.2-9,1.2-10.62-4.41-19.43-5.81-24-8.41-16.63-9.21-26.65-1.61-14.42-1.61-14.42Z" style="fill:#fff;stroke:#263238;stroke-miterlimit:10"></path><path d="M411,435.45c2.27.66,4.26,3.06,5.38,4.64,1.31,3,3.45,7.84,4.71,10.36,1.8,3.61,6.21,9,6.21,10.62s-3.2,1.6-3.81,1.6h-11s-3-1-3.61-2.2-1-6.41-2.4-8-4.81-5.81-5-8a40.4,40.4,0,0,1,.71-6.74A9,9,0,0,1,411,435.45Z" style="fill:#FF5DD9;stroke:#263238;stroke-miterlimit:10"></path><path d="M423.52,462.67h-11s-3-1-3.61-2.2-1-6.41-2.4-8c-1.18-1.35-3.78-4.55-4.69-6.84l.54-.57s5.39-4.34,9.34-2,5,7.89,7.49,10.65,6.7,4.81,8.15,7.34C427.33,462.67,424.13,462.67,423.52,462.67Z" style="fill:#263238;stroke:#263238;stroke-miterlimit:10"></path><path d="M407.86,201s6.25,34.16,6.43,35.28,5.25,17.8,4.5,21.54-16.3,35.4-16.3,35.4-3.93-6.55-4.49-6.93,1.5-31.65,1.5-31.65l-6.19-20s0-20.43,2.63-24.35S406.8,199,407.86,201Z" style="fill:#FF5DD9;stroke:#263238;stroke-miterlimit:10"></path><path d="M395.3,238.85s8.86-2.27,13.8-7.21" style="fill:none;stroke:#263238;stroke-miterlimit:10"></path><path d="M399.42,245.85s6.8,4.33,13.8,4.33" style="fill:none;stroke:#263238;stroke-miterlimit:10"></path><path d="M409.75,278.19c-3.76,7.89-7.26,15-7.26,15s-3.93-6.55-4.49-6.93c-.21-.13-.06-4.4.2-9.75A12.15,12.15,0,0,0,409.75,278.19Z" style="fill:#fff;stroke:#263238;stroke-miterlimit:10"></path><path d="M391.85,259.5,404,290.83c3.41,8.82,3.91,55.85,3.91,55.85l-1,17.63s-19.64,9.22-42.07,8.21a172,172,0,0,1-41.67-7.41s.1-40.82,5.1-54.44,8.62-27.45,8.62-27.45l1.68-21.11Z" style="fill:#263238;stroke:#263238;stroke-miterlimit:10"></path><path d="M402.88,212c-.35.89-9,29.12-9,29.12s-2.06,6.75-2.25,7.5a93.55,93.55,0,0,0,.56,10.3c.19.75,1.56-1.25,1,1.37s-3,2.81-4.49,3.56a69,69,0,0,1-24.91,4.69,184.46,184.46,0,0,1-25.48-2.63,32,32,0,0,1-2.43-5.43c-.38-1.68.68-5.5.68-5.5l-5-40.31s-20.85-27.56-23.7-29.51-6.58-4.81-7.65-5.7a11.54,11.54,0,0,1-2.84-4.62c-.72-2-19.68-36.5-19.68-36.5s4.8-5.16,6-5.51a38.62,38.62,0,0,1,4.1-.71l24.66,27.59s4.8,2.32,5.87,2.85.89,3.56.89,3.56l7.51,3.36,25.17,7.95,12,2.9s34,12.81,36.13,13.88,8,5,7.82,6.76-3.38,9.08-3.38,9.08" style="fill:#FF5DD9;stroke:#263238;stroke-miterlimit:10"></path><path d="M351.27,237.05c5.48,7.34,12.8,16.19,19,20.39" style="fill:none;stroke:#263238;stroke-miterlimit:10"></path><path d="M343.12,225.41s2.59,4,6.44,9.32" style="fill:none;stroke:#263238;stroke-miterlimit:10"></path><path d="M377.16,255.87a30.84,30.84,0,0,0,2.86,1.76" style="fill:none;stroke:#263238;stroke-miterlimit:10"></path><path d="M364.28,244.33a104.25,104.25,0,0,0,10.87,10.06" style="fill:none;stroke:#263238;stroke-miterlimit:10"></path><path d="M314.77,167s-8.18,9.43-8,6.58-.72-2.85,2-5" style="fill:none;stroke:#263238;stroke-miterlimit:10"></path><path d="M363.16,130.27s-10,5.95-10.84,7.87-1.27,6.58-2.34,7.65-7.22,2.55-7,4,2.55,6,2.55,6-.42,14.24-.42,15.3,1.27,1.7,2.55,1.91,4.25,1.07,4.25,1.07v3.4s8.28,2.76,9.13,2.76,6.38.42,6.38.42,11.26-7.43,14.87-18.06,0-18.91-4-23.8S363.16,130.27,363.16,130.27Z" style="fill:#fff;stroke:#263238;stroke-miterlimit:10"></path><path d="M364.86,159s7-5.74,8.71-1.06.21,7.22-1.91,8.07-7.23,2.55-7.23,2.55-4.88,11.26-5.31,15.94-3.4,8.29-1.91,11.47,3.61,4.47,14,5.53,22.28-.47,29.71-3.66,6.42-14.4,4.93-17-8.5-11.48-8.29-16.15,6.59-11.88,2.07-24.82c-4-11.45-23.53-18.53-28.84-17.89s-10,0-10,3.4a16.33,16.33,0,0,0,3.83,11.47c3.61,4.68,1.48,8.29.63,9.14s-3.61,3.61-3.18,7A12,12,0,0,0,364.86,159Z" style="fill:#263238;stroke:#263238;stroke-miterlimit:10"></path><path d="M352.58,160.22s-.74,3.19-5.65,2.21" style="fill:none;stroke:#263238;stroke-miterlimit:10"></path><path d="M355.77,143.28a3,3,0,0,0-2.94-2.33" style="fill:none;stroke:#263238;stroke-miterlimit:10"></path><path d="M351.55,146c-.48,1-.58,1.91-.22,2.09s1.06-.46,1.54-1.43.58-1.91.22-2.09S352,145.05,351.55,146Z" style="fill:#263238"></path></g><g id="freepik--character-1--inject-3"><path d="M148.61,136.12s.55-1.11-1.1-2.76-9-6.25-11.22-7.73-4.78-6.06-13.61-.73S108,139.8,106.87,146.6s3.31,15.08,11.58,19.68a44,44,0,0,0,14.71,5.33l.92,1.65,26.12-3.86s4.23-4.41,3.68-7-5.15-11.21-5.15-11.21,2.94-4.42,2-5.7S148.61,136.12,148.61,136.12Z" style="fill:#fff;stroke:#263238;stroke-miterlimit:10"></path><path d="M137.76,158.37s-3.68,1.29-5.15,1.84-5.7-.74-7.54-4.42.92-7.54,2.94-7.9,3.68.92,4.79.73,1.1-1.47,1.28-2.57-2.94-3.13-2.94-3.13,4.23-4.6,5.33-6.62-7.54-4-7.9-5.7,7.72-5,7.72-5c-2.21-1.47-4.78-6.06-13.61-.73S108,139.8,106.87,146.6s3.31,15.08,11.58,19.68A48.16,48.16,0,0,0,131,171.21l1.94-1.07s.92-1.1,3.13-4.42A11.84,11.84,0,0,0,137.76,158.37Z" style="fill:#263238;stroke:#263238;stroke-miterlimit:10"></path><path d="M147.32,135.38s-2.39-.37-4.23,2.94" style="fill:none;stroke:#263238;stroke-miterlimit:10"></path><path d="M158.73,154.87s-3.5,1.48-8.1-2.57" style="fill:none;stroke:#263238;stroke-miterlimit:10"></path><path d="M148.31,140.77c.64,1.27.72,2.52.17,2.8s-1.5-.54-2.14-1.81-.72-2.52-.17-2.79S147.67,139.5,148.31,140.77Z" style="fill:#263238"></path><path d="M156.34,171.06s-21.89-1.84-23.18.55-1.1,7.17-1.1,7.17l24.09-5.52Z" style="fill:#FF5DD9;stroke:#263238;stroke-miterlimit:10"></path><path d="M192,160.73s44.72-48.82,45-49.52,1.63-16.48,1.76-17.58-.22-2.8,1.1-4.49,3.83-5.65,3.83-5.65a54.83,54.83,0,0,1,2.65-5c.66-.85,2.3-2.13,3.36-3.3s2.66-2.09,3.51-1.43,1.25,3.42,1.25,3.42,1.11,0,1.46,1.72-2.4,10.64-2.51,11.56-.94,9.33-1.92,14.4-2.53,8.58-4.05,10.44-17.71,25.45-21.78,30-20.15,32.52-20.15,32.52Z" style="fill:#fff;stroke:#263238;stroke-miterlimit:10"></path><path d="M242.54,85.5s-2.24,6.24-2.34,7.1-.67,5.56-.67,5.56" style="fill:none;stroke:#263238;stroke-miterlimit:10"></path><path d="M247.4,77.58s-2.89,8.07-3.21,9.34-.62,3-.62,3" style="fill:none;stroke:#263238;stroke-miterlimit:10"></path><path d="M254.4,77.13a54.45,54.45,0,0,1-2.17,5.73,51.41,51.41,0,0,0-2.5,8.46" style="fill:none;stroke:#263238;stroke-miterlimit:10"></path><path d="M251.46,74.17s-3.39,8.62-3.87,10.47-1.14,5.07-1.36,5.47" style="fill:none;stroke:#263238;stroke-miterlimit:10"></path><polygon points="180.11 191.04 207.33 266.06 201.21 274.62 194.78 262.6 189.72 236.98 180.11 191.04" style="fill:#263238;stroke:#263238;stroke-miterlimit:10"></polygon><path d="M121.39,246.37s-2.7,10.81-.83,12.26,18.91,6.65,19.33,6,.2-7.48-.21-9.35-3.53-4.36-3.53-4.36Z" style="fill:#fff;stroke:#263238;stroke-miterlimit:10"></path><path d="M126.17,215s-5.4,27.43-5,28.47,14.33,2.7,14.33,2.7Z" style="fill:#FF5DD9;stroke:#263238;stroke-miterlimit:10"></path><path d="M120.15,238.27s-1.67,8.73.41,9.77,14.55,4.36,15.59,2.91-.42-7.69-.42-7.69S121.19,236.61,120.15,238.27Z" style="fill:#FF5DD9;stroke:#263238;stroke-miterlimit:10"></path><path d="M178,443.14s6.77,5.07,8.7,5.56,8.7,2.65,9.42,3.86,0,5.08-1,6.53-14.73,3.62-21.26,2.9-20.78,2.65-22.23-1.94,1-11.35,1-11.35S173.68,444.11,178,443.14Z" style="fill:#fff;stroke:#263238;stroke-miterlimit:10"></path><path d="M191.08,457.88c-2.66.72-13.29,1.21-25.86,1.69-8,.31-12.07-1.24-14-2.41a11.34,11.34,0,0,0,.45,2.89c1.45,4.59,15.71,1.21,22.23,1.94s20.3-1.45,21.26-2.9a8.17,8.17,0,0,0,1-2.56Z" style="fill:#fff;stroke:#263238;stroke-miterlimit:10"></path><path d="M89.36,428.64s-5.8,12.08-4.84,14.74,3.87,3.14,6.53,4.11,9.42.72,11.35,1.93,11.12,5.32,15.47,6,8.94-1.21,9.42-3.14-7-7.73-9.91-9.66-7.49-8.7-7.49-8.7Z" style="fill:#fff;stroke:#263238;stroke-miterlimit:10"></path><path d="M99,446.28A105.11,105.11,0,0,1,84.6,441.1a4.86,4.86,0,0,0-.08,2.28c1,2.66,3.87,3.14,6.53,4.11s9.42.72,11.35,1.93,11.12,5.32,15.47,6,8.94-1.21,9.42-3.14a2.19,2.19,0,0,0-.57-1.56c-2,1.23-4.77,2.63-6.92,2.77C115.93,453.77,105.06,447.73,99,446.28Z" style="fill:#fff;stroke:#263238;stroke-miterlimit:10"></path><path d="M137.21,275.51s-5.33,20.51-5.57,26.31a107,107,0,0,0,.24,11.59s-3.86,2.9-3.14,5.32a15.23,15.23,0,0,0,1.93,4.11s-9.18,35-10.39,36.72-14,21.51-17.39,28.27-11.36,35-11.36,35a7.41,7.41,0,0,0-1.93,3.39c-.24,1.69-.73,4.59-.73,4.59a13.1,13.1,0,0,0,9.91,6.28c7.25,1,11.11-.48,11.11-.48a11.87,11.87,0,0,0,1.7-4.11c.48-2.42,1.2-6.28,1.2-6.28l13.53-23.44,22.47-41.29,6.77-19.33s3.14,28.51,2.9,29.72-6.52,22.93-6.52,33.56.72,32.86.72,32.86-1.93,3.38-1.45,5.31l.48,1.94,1,3.14s9.42-.25,13.77-1,11.6-4.59,11.6-4.59.72-3.38,0-4.59a13.08,13.08,0,0,1-1.93-3.63,17.38,17.38,0,0,1-.24-7.49c.72-3.38,8.21-54.09,11.11-66.9s3.62-54.12,3.38-61.61a96.17,96.17,0,0,0-1.21-12.81l.49-8.7s-13.53-5.8-25.13-6.52-25.61,1.45-25.61,1.45Z" style="fill:#263238;stroke:#263238;stroke-miterlimit:10"></path><polyline points="141.79 314.62 150.73 329.12 154.59 340.48" style="fill:none;stroke:#8f8f8f;stroke-miterlimit:10"></polyline><path d="M158.35,314.24c1.69-1.5,3.36-3.11,4-3.73,1.21-1.2,2.9-17.87,3.15-18.6" style="fill:none;stroke:#8f8f8f;stroke-miterlimit:10"></path><path d="M140.58,294.08s0,12.57,1.45,15.23,10.87,8.45,12.32,8" style="fill:none;stroke:#8f8f8f;stroke-miterlimit:10"></path><path d="M143.24,288.53s13-2.18,21.5.72" style="fill:none;stroke:#263238;stroke-miterlimit:10"></path><path d="M175.52,352.72c.32,7.09.61,17.07-.15,19.65a47.52,47.52,0,0,1-2.66,6.76c-.72,1.94.25,4.11-.24,5.32s-1.93,22.45-3.14,28-1.45,17.64-1.45,17.64" style="fill:none;stroke:#8f8f8f;stroke-miterlimit:10"></path><path d="M179.72,281s-1.69,21.26-2.42,28-3.14,17.15-2.89,21.5.72,14.74.72,14.74.06.93.14,2.46" style="fill:none;stroke:#8f8f8f;stroke-miterlimit:10"></path><path d="M168.37,433.23v5.56a1.94,1.94,0,0,1,1.44,2.42,7.53,7.53,0,0,1-2.17,3.38" style="fill:none;stroke:#263238;stroke-miterlimit:10"></path><path d="M132.06,178.78s-7.91,8.65-9.93,18.58,4.78,23.35,4.78,23.35l11.4,42.11s-3.31,2.58-3.49,4.79.73,7.35,2.39,7.9,27.4.37,27.4.37,25.56,4.6,26.11,4.6,3.5-2.58,3.5-5.52-.55-7.17-.74-9-7.54-50.2-8.27-53.51-1-16.39-1-16.39l15.4-11.43,2.64-3.38-11.78-19s-18.87,4.62-19.79,5.35S132.06,178.78,132.06,178.78Z" style="fill:#FF5DD9;stroke:#263238;stroke-miterlimit:10"></path><path d="M186.12,164.47s12.45,22.62,13.21,22.53,7.66-5.19,8.16-6.24-.33-3.37-.33-3.37-13-16.95-14.12-18a2,2,0,0,0-3,0C189.62,160.07,185.29,160.66,186.12,164.47Z" style="fill:#FF5DD9;stroke:#263238;stroke-miterlimit:10"></path><line x1="184.21" y1="196.05" x2="159.99" y2="214.13" style="fill:none;stroke:#263238;stroke-miterlimit:10"></line><path d="M155.87,241.3a56.16,56.16,0,0,1-3.86,5.92" style="fill:none;stroke:#263238;stroke-miterlimit:10"></path><path d="M168.33,212a140.27,140.27,0,0,1-10.83,26.29" style="fill:none;stroke:#263238;stroke-miterlimit:10"></path><path d="M159.55,242.19s-8.94,13.42-13.14,17.05" style="fill:none;stroke:#263238;stroke-miterlimit:10"></path></g></svg>
